<svg width="487" height="196" viewBox="0 0 487 196" fill="none" xmlns="http://www.w3.org/2000/svg">
<circle cx="29.5" cy="33.5" r="29.5" fill="#F57921"/>
<circle cx="29.5" cy="154.5" r="29.5" fill="#21B5F5"/>
<path d="M107.965 31H100.696V18.1504H107.965V19.9258H102.797V23.4238H107.64V25.1816H102.797V29.2158H107.965V31ZM117.062 28.2314C117.062 29.1807 116.716 29.9102 116.024 30.4199C115.333 30.9238 114.343 31.1758 113.054 31.1758C111.759 31.1758 110.719 30.9795 109.934 30.5869V28.8027C111.076 29.3301 112.14 29.5938 113.124 29.5938C114.396 29.5938 115.031 29.21 115.031 28.4424C115.031 28.1963 114.961 27.9912 114.82 27.8271C114.68 27.6631 114.448 27.4932 114.126 27.3174C113.804 27.1416 113.355 26.9424 112.781 26.7197C111.662 26.2861 110.903 25.8525 110.505 25.4189C110.112 24.9854 109.916 24.4229 109.916 23.7314C109.916 22.8994 110.25 22.2549 110.918 21.7979C111.592 21.335 112.506 21.1035 113.66 21.1035C114.803 21.1035 115.884 21.335 116.903 21.7979L116.235 23.3535C115.187 22.9199 114.305 22.7031 113.59 22.7031C112.5 22.7031 111.955 23.0137 111.955 23.6348C111.955 23.9395 112.096 24.1973 112.377 24.4082C112.664 24.6191 113.285 24.9092 114.24 25.2783C115.043 25.5889 115.626 25.873 115.989 26.1309C116.353 26.3887 116.622 26.6875 116.798 27.0273C116.974 27.3613 117.062 27.7627 117.062 28.2314ZM122.924 29.5059C123.428 29.5059 123.932 29.4268 124.436 29.2686V30.8242C124.207 30.9238 123.911 31.0059 123.548 31.0703C123.19 31.1406 122.818 31.1758 122.432 31.1758C120.475 31.1758 119.496 30.1445 119.496 28.082V22.8438H118.169V21.9297L119.593 21.1738L120.296 19.1172H121.57V21.2793H124.339V22.8438H121.57V28.0469C121.57 28.5449 121.693 28.9141 121.939 29.1543C122.191 29.3887 122.52 29.5059 122.924 29.5059ZM132.469 31L132.056 29.6465H131.985C131.517 30.2383 131.045 30.6426 130.57 30.8594C130.096 31.0703 129.486 31.1758 128.742 31.1758C127.787 31.1758 127.04 30.918 126.501 30.4023C125.968 29.8867 125.701 29.1572 125.701 28.2139C125.701 27.2119 126.073 26.4561 126.817 25.9463C127.562 25.4365 128.695 25.1582 130.219 25.1113L131.897 25.0586V24.54C131.897 23.9189 131.751 23.4561 131.458 23.1514C131.171 22.8408 130.723 22.6855 130.113 22.6855C129.615 22.6855 129.138 22.7588 128.681 22.9053C128.224 23.0518 127.784 23.2246 127.362 23.4238L126.694 21.9473C127.222 21.6719 127.799 21.4639 128.426 21.3232C129.053 21.1768 129.645 21.1035 130.201 21.1035C131.438 21.1035 132.369 21.373 132.996 21.9121C133.629 22.4512 133.945 23.2979 133.945 24.4521V31H132.469ZM129.393 29.5938C130.143 29.5938 130.743 29.3857 131.194 28.9697C131.651 28.5479 131.88 27.959 131.88 27.2031V26.3594L130.632 26.4121C129.659 26.4473 128.95 26.6113 128.505 26.9043C128.065 27.1914 127.846 27.6338 127.846 28.2314C127.846 28.665 127.975 29.002 128.232 29.2422C128.49 29.4766 128.877 29.5938 129.393 29.5938ZM140.106 31.1758C138.894 31.1758 137.947 30.7363 137.268 29.8574C136.588 28.9785 136.248 27.7451 136.248 26.1572C136.248 24.5635 136.591 23.3242 137.276 22.4395C137.968 21.5488 138.923 21.1035 140.142 21.1035C141.419 21.1035 142.392 21.5752 143.06 22.5186H143.165C143.065 21.8213 143.016 21.2705 143.016 20.8662V17.3242H145.09V31H143.473L143.112 29.7256H143.016C142.354 30.6924 141.384 31.1758 140.106 31.1758ZM140.66 29.5059C141.51 29.5059 142.128 29.2686 142.515 28.7939C142.901 28.3135 143.101 27.5371 143.112 26.4648V26.1748C143.112 24.9502 142.913 24.0801 142.515 23.5645C142.116 23.0488 141.492 22.791 140.643 22.791C139.916 22.791 139.356 23.0869 138.964 23.6787C138.571 24.2646 138.375 25.1025 138.375 26.1924C138.375 27.2705 138.565 28.0938 138.946 28.6621C139.327 29.2246 139.898 29.5059 140.66 29.5059ZM150.108 31H148.043V21.2793H150.108V31ZM147.92 18.7041C147.92 18.335 148.02 18.0508 148.219 17.8516C148.424 17.6523 148.714 17.5527 149.089 17.5527C149.452 17.5527 149.733 17.6523 149.933 17.8516C150.138 18.0508 150.24 18.335 150.24 18.7041C150.24 19.0557 150.138 19.334 149.933 19.5391C149.733 19.7383 149.452 19.8379 149.089 19.8379C148.714 19.8379 148.424 19.7383 148.219 19.5391C148.02 19.334 147.92 19.0557 147.92 18.7041ZM159.152 31L158.739 29.6465H158.669C158.2 30.2383 157.729 30.6426 157.254 30.8594C156.779 31.0703 156.17 31.1758 155.426 31.1758C154.471 31.1758 153.724 30.918 153.185 30.4023C152.651 29.8867 152.385 29.1572 152.385 28.2139C152.385 27.2119 152.757 26.4561 153.501 25.9463C154.245 25.4365 155.379 25.1582 156.902 25.1113L158.581 25.0586V24.54C158.581 23.9189 158.435 23.4561 158.142 23.1514C157.854 22.8408 157.406 22.6855 156.797 22.6855C156.299 22.6855 155.821 22.7588 155.364 22.9053C154.907 23.0518 154.468 23.2246 154.046 23.4238L153.378 21.9473C153.905 21.6719 154.482 21.4639 155.109 21.3232C155.736 21.1768 156.328 21.1035 156.885 21.1035C158.121 21.1035 159.053 21.373 159.68 21.9121C160.312 22.4512 160.629 23.2979 160.629 24.4521V31H159.152ZM156.076 29.5938C156.826 29.5938 157.427 29.3857 157.878 28.9697C158.335 28.5479 158.563 27.959 158.563 27.2031V26.3594L157.315 26.4121C156.343 26.4473 155.634 26.6113 155.188 26.9043C154.749 27.1914 154.529 27.6338 154.529 28.2314C154.529 28.665 154.658 29.002 154.916 29.2422C155.174 29.4766 155.561 29.5938 156.076 29.5938ZM171.466 31.1758C170.253 31.1758 169.307 30.7363 168.627 29.8574C167.947 28.9785 167.607 27.7451 167.607 26.1572C167.607 24.5635 167.95 23.3242 168.636 22.4395C169.327 21.5488 170.282 21.1035 171.501 21.1035C172.778 21.1035 173.751 21.5752 174.419 22.5186H174.524C174.425 21.8213 174.375 21.2705 174.375 20.8662V17.3242H176.449V31H174.832L174.472 29.7256H174.375C173.713 30.6924 172.743 31.1758 171.466 31.1758ZM172.02 29.5059C172.869 29.5059 173.487 29.2686 173.874 28.7939C174.261 28.3135 174.46 27.5371 174.472 26.4648V26.1748C174.472 24.9502 174.272 24.0801 173.874 23.5645C173.476 23.0488 172.852 22.791 172.002 22.791C171.275 22.791 170.716 23.0869 170.323 23.6787C169.931 24.2646 169.734 25.1025 169.734 26.1924C169.734 27.2705 169.925 28.0938 170.306 28.6621C170.687 29.2246 171.258 29.5059 172.02 29.5059ZM183.647 31.1758C182.136 31.1758 180.952 30.7363 180.097 29.8574C179.247 28.9727 178.822 27.7568 178.822 26.21C178.822 24.6221 179.218 23.374 180.009 22.4658C180.8 21.5576 181.887 21.1035 183.27 21.1035C184.553 21.1035 185.566 21.4932 186.311 22.2725C187.055 23.0518 187.427 24.124 187.427 25.4893V26.6055H180.949C180.979 27.5488 181.233 28.2754 181.714 28.7852C182.194 29.2891 182.871 29.541 183.744 29.541C184.318 29.541 184.852 29.4883 185.344 29.3828C185.842 29.2715 186.375 29.0898 186.943 28.8379V30.5166C186.439 30.7568 185.93 30.9268 185.414 31.0264C184.898 31.126 184.31 31.1758 183.647 31.1758ZM183.27 22.668C182.613 22.668 182.086 22.876 181.688 23.292C181.295 23.708 181.061 24.3145 180.984 25.1113H185.396C185.385 24.3086 185.191 23.7021 184.816 23.292C184.441 22.876 183.926 22.668 183.27 22.668ZM194.669 31V18.1504H196.77V31H194.669ZM208.503 31H206.429V25.0234C206.429 24.2734 206.276 23.7139 205.972 23.3447C205.673 22.9756 205.195 22.791 204.539 22.791C203.666 22.791 203.027 23.0488 202.623 23.5645C202.219 24.0801 202.017 24.9443 202.017 26.1572V31H199.951V21.2793H201.568L201.858 22.5537H201.964C202.257 22.0908 202.673 21.7334 203.212 21.4814C203.751 21.2295 204.349 21.1035 205.005 21.1035C207.337 21.1035 208.503 22.29 208.503 24.6631V31ZM213.592 31L209.9 21.2793H212.08L214.058 26.9307C214.397 27.8799 214.603 28.6475 214.673 29.2334H214.743C214.796 28.8115 215.001 28.0439 215.358 26.9307L217.336 21.2793H219.533L215.824 31H213.592ZM225.255 31.1758C223.743 31.1758 222.56 30.7363 221.704 29.8574C220.854 28.9727 220.43 27.7568 220.43 26.21C220.43 24.6221 220.825 23.374 221.616 22.4658C222.407 21.5576 223.494 21.1035 224.877 21.1035C226.16 21.1035 227.174 21.4932 227.918 22.2725C228.662 23.0518 229.034 24.124 229.034 25.4893V26.6055H222.557C222.586 27.5488 222.841 28.2754 223.321 28.7852C223.802 29.2891 224.479 29.541 225.352 29.541C225.926 29.541 226.459 29.4883 226.951 29.3828C227.449 29.2715 227.982 29.0898 228.551 28.8379V30.5166C228.047 30.7568 227.537 30.9268 227.021 31.0264C226.506 31.126 225.917 31.1758 225.255 31.1758ZM224.877 22.668C224.221 22.668 223.693 22.876 223.295 23.292C222.902 23.708 222.668 24.3145 222.592 25.1113H227.004C226.992 24.3086 226.799 23.7021 226.424 23.292C226.049 22.876 225.533 22.668 224.877 22.668ZM236.312 21.1035C236.728 21.1035 237.07 21.1328 237.34 21.1914L237.138 23.1162C236.845 23.0459 236.54 23.0107 236.224 23.0107C235.397 23.0107 234.727 23.2803 234.211 23.8193C233.701 24.3584 233.446 25.0586 233.446 25.9199V31H231.381V21.2793H232.998L233.271 22.9932H233.376C233.698 22.4131 234.117 21.9531 234.633 21.6133C235.154 21.2734 235.714 21.1035 236.312 21.1035ZM247.702 31H245.628V25.0234C245.628 24.2734 245.476 23.7139 245.171 23.3447C244.872 22.9756 244.395 22.791 243.738 22.791C242.865 22.791 242.227 23.0488 241.822 23.5645C241.418 24.0801 241.216 24.9443 241.216 26.1572V31H239.15V21.2793H240.768L241.058 22.5537H241.163C241.456 22.0908 241.872 21.7334 242.411 21.4814C242.95 21.2295 243.548 21.1035 244.204 21.1035C246.536 21.1035 247.702 22.29 247.702 24.6631V31ZM259.198 26.1221C259.198 27.71 258.791 28.9492 257.977 29.8398C257.162 30.7305 256.028 31.1758 254.575 31.1758C253.667 31.1758 252.864 30.9707 252.167 30.5605C251.47 30.1504 250.934 29.5615 250.559 28.7939C250.184 28.0264 249.996 27.1357 249.996 26.1221C249.996 24.5459 250.4 23.3154 251.209 22.4307C252.018 21.5459 253.157 21.1035 254.628 21.1035C256.034 21.1035 257.147 21.5576 257.968 22.4658C258.788 23.3682 259.198 24.5869 259.198 26.1221ZM252.123 26.1221C252.123 28.3662 252.952 29.4883 254.61 29.4883C256.251 29.4883 257.071 28.3662 257.071 26.1221C257.071 23.9014 256.245 22.791 254.593 22.791C253.726 22.791 253.096 23.0781 252.703 23.6523C252.316 24.2266 252.123 25.0498 252.123 26.1221ZM265.412 27.0537V25.2959H269.93V27.0537H265.412ZM279.035 31H276.952V18.1504H284.203V19.9258H279.035V23.9424H283.878V25.7266H279.035V31ZM288.378 31H286.312V21.2793H288.378V31ZM286.189 18.7041C286.189 18.335 286.289 18.0508 286.488 17.8516C286.693 17.6523 286.983 17.5527 287.358 17.5527C287.722 17.5527 288.003 17.6523 288.202 17.8516C288.407 18.0508 288.51 18.335 288.51 18.7041C288.51 19.0557 288.407 19.334 288.202 19.5391C288.003 19.7383 287.722 19.8379 287.358 19.8379C286.983 19.8379 286.693 19.7383 286.488 19.5391C286.289 19.334 286.189 19.0557 286.189 18.7041ZM299.892 31H297.817V25.0234C297.817 24.2734 297.665 23.7139 297.36 23.3447C297.062 22.9756 296.584 22.791 295.928 22.791C295.055 22.791 294.416 23.0488 294.012 23.5645C293.607 24.0801 293.405 24.9443 293.405 26.1572V31H291.34V21.2793H292.957L293.247 22.5537H293.353C293.646 22.0908 294.062 21.7334 294.601 21.4814C295.14 21.2295 295.737 21.1035 296.394 21.1035C298.726 21.1035 299.892 22.29 299.892 24.6631V31ZM304.831 31H302.766V17.3242H304.831V31ZM313.875 31L313.462 29.6465H313.392C312.923 30.2383 312.451 30.6426 311.977 30.8594C311.502 31.0703 310.893 31.1758 310.148 31.1758C309.193 31.1758 308.446 30.918 307.907 30.4023C307.374 29.8867 307.107 29.1572 307.107 28.2139C307.107 27.2119 307.479 26.4561 308.224 25.9463C308.968 25.4365 310.102 25.1582 311.625 25.1113L313.304 25.0586V24.54C313.304 23.9189 313.157 23.4561 312.864 23.1514C312.577 22.8408 312.129 22.6855 311.52 22.6855C311.021 22.6855 310.544 22.7588 310.087 22.9053C309.63 23.0518 309.19 23.2246 308.769 23.4238L308.101 21.9473C308.628 21.6719 309.205 21.4639 309.832 21.3232C310.459 21.1768 311.051 21.1035 311.607 21.1035C312.844 21.1035 313.775 21.373 314.402 21.9121C315.035 22.4512 315.352 23.2979 315.352 24.4521V31H313.875ZM310.799 29.5938C311.549 29.5938 312.149 29.3857 312.601 28.9697C313.058 28.5479 313.286 27.959 313.286 27.2031V26.3594L312.038 26.4121C311.065 26.4473 310.356 26.6113 309.911 26.9043C309.472 27.1914 309.252 27.6338 309.252 28.2314C309.252 28.665 309.381 29.002 309.639 29.2422C309.896 29.4766 310.283 29.5938 310.799 29.5938ZM313.471 20.0928C312.75 19.665 312.082 19.1377 311.467 18.5107C310.863 19.1143 310.204 19.6416 309.489 20.0928H308.101V19.873C309.22 18.7129 309.964 17.8252 310.333 17.21H312.618C312.987 17.8545 313.737 18.7422 314.868 19.873V20.0928H313.471ZM326.786 31H324.712V25.0234C324.712 24.2734 324.56 23.7139 324.255 23.3447C323.956 22.9756 323.479 22.791 322.822 22.791C321.949 22.791 321.311 23.0488 320.906 23.5645C320.502 24.0801 320.3 24.9443 320.3 26.1572V31H318.234V21.2793H319.852L320.142 22.5537H320.247C320.54 22.0908 320.956 21.7334 321.495 21.4814C322.034 21.2295 322.632 21.1035 323.288 21.1035C325.62 21.1035 326.786 22.29 326.786 24.6631V31ZM332.938 31.1758C331.726 31.1758 330.779 30.7363 330.1 29.8574C329.42 28.9785 329.08 27.7451 329.08 26.1572C329.08 24.5635 329.423 23.3242 330.108 22.4395C330.8 21.5488 331.755 21.1035 332.974 21.1035C334.251 21.1035 335.224 21.5752 335.892 22.5186H335.997C335.897 21.8213 335.848 21.2705 335.848 20.8662V17.3242H337.922V31H336.305L335.944 29.7256H335.848C335.186 30.6924 334.216 31.1758 332.938 31.1758ZM333.492 29.5059C334.342 29.5059 334.96 29.2686 335.347 28.7939C335.733 28.3135 335.933 27.5371 335.944 26.4648V26.1748C335.944 24.9502 335.745 24.0801 335.347 23.5645C334.948 23.0488 334.324 22.791 333.475 22.791C332.748 22.791 332.188 23.0869 331.796 23.6787C331.403 24.2646 331.207 25.1025 331.207 26.1924C331.207 27.2705 331.397 28.0938 331.778 28.6621C332.159 29.2246 332.73 29.5059 333.492 29.5059ZM342.94 31H340.875V21.2793H342.94V31ZM340.752 18.7041C340.752 18.335 340.852 18.0508 341.051 17.8516C341.256 17.6523 341.546 17.5527 341.921 17.5527C342.284 17.5527 342.565 17.6523 342.765 17.8516C342.97 18.0508 343.072 18.335 343.072 18.7041C343.072 19.0557 342.97 19.334 342.765 19.5391C342.565 19.7383 342.284 19.8379 341.921 19.8379C341.546 19.8379 341.256 19.7383 341.051 19.5391C340.852 19.334 340.752 19.0557 340.752 18.7041ZM351.984 31L351.571 29.6465H351.501C351.032 30.2383 350.561 30.6426 350.086 30.8594C349.611 31.0703 349.002 31.1758 348.258 31.1758C347.303 31.1758 346.556 30.918 346.017 30.4023C345.483 29.8867 345.217 29.1572 345.217 28.2139C345.217 27.2119 345.589 26.4561 346.333 25.9463C347.077 25.4365 348.211 25.1582 349.734 25.1113L351.413 25.0586V24.54C351.413 23.9189 351.267 23.4561 350.974 23.1514C350.687 22.8408 350.238 22.6855 349.629 22.6855C349.131 22.6855 348.653 22.7588 348.196 22.9053C347.739 23.0518 347.3 23.2246 346.878 23.4238L346.21 21.9473C346.737 21.6719 347.314 21.4639 347.941 21.3232C348.568 21.1768 349.16 21.1035 349.717 21.1035C350.953 21.1035 351.885 21.373 352.512 21.9121C353.145 22.4512 353.461 23.2979 353.461 24.4521V31H351.984ZM348.908 29.5938C349.658 29.5938 350.259 29.3857 350.71 28.9697C351.167 28.5479 351.396 27.959 351.396 27.2031V26.3594L350.147 26.4121C349.175 26.4473 348.466 26.6113 348.021 26.9043C347.581 27.1914 347.361 27.6338 347.361 28.2314C347.361 28.665 347.49 29.002 347.748 29.2422C348.006 29.4766 348.393 29.5938 348.908 29.5938Z" fill="black"/>
<path d="M107.965 141H100.696V128.15H107.965V129.926H102.797V133.424H107.64V135.182H102.797V139.216H107.965V141ZM117.062 138.231C117.062 139.181 116.716 139.91 116.024 140.42C115.333 140.924 114.343 141.176 113.054 141.176C111.759 141.176 110.719 140.979 109.934 140.587V138.803C111.076 139.33 112.14 139.594 113.124 139.594C114.396 139.594 115.031 139.21 115.031 138.442C115.031 138.196 114.961 137.991 114.82 137.827C114.68 137.663 114.448 137.493 114.126 137.317C113.804 137.142 113.355 136.942 112.781 136.72C111.662 136.286 110.903 135.853 110.505 135.419C110.112 134.985 109.916 134.423 109.916 133.731C109.916 132.899 110.25 132.255 110.918 131.798C111.592 131.335 112.506 131.104 113.66 131.104C114.803 131.104 115.884 131.335 116.903 131.798L116.235 133.354C115.187 132.92 114.305 132.703 113.59 132.703C112.5 132.703 111.955 133.014 111.955 133.635C111.955 133.939 112.096 134.197 112.377 134.408C112.664 134.619 113.285 134.909 114.24 135.278C115.043 135.589 115.626 135.873 115.989 136.131C116.353 136.389 116.622 136.688 116.798 137.027C116.974 137.361 117.062 137.763 117.062 138.231ZM122.924 139.506C123.428 139.506 123.932 139.427 124.436 139.269V140.824C124.207 140.924 123.911 141.006 123.548 141.07C123.19 141.141 122.818 141.176 122.432 141.176C120.475 141.176 119.496 140.145 119.496 138.082V132.844H118.169V131.93L119.593 131.174L120.296 129.117H121.57V131.279H124.339V132.844H121.57V138.047C121.57 138.545 121.693 138.914 121.939 139.154C122.191 139.389 122.52 139.506 122.924 139.506ZM132.469 141L132.056 139.646H131.985C131.517 140.238 131.045 140.643 130.57 140.859C130.096 141.07 129.486 141.176 128.742 141.176C127.787 141.176 127.04 140.918 126.501 140.402C125.968 139.887 125.701 139.157 125.701 138.214C125.701 137.212 126.073 136.456 126.817 135.946C127.562 135.437 128.695 135.158 130.219 135.111L131.897 135.059V134.54C131.897 133.919 131.751 133.456 131.458 133.151C131.171 132.841 130.723 132.686 130.113 132.686C129.615 132.686 129.138 132.759 128.681 132.905C128.224 133.052 127.784 133.225 127.362 133.424L126.694 131.947C127.222 131.672 127.799 131.464 128.426 131.323C129.053 131.177 129.645 131.104 130.201 131.104C131.438 131.104 132.369 131.373 132.996 131.912C133.629 132.451 133.945 133.298 133.945 134.452V141H132.469ZM129.393 139.594C130.143 139.594 130.743 139.386 131.194 138.97C131.651 138.548 131.88 137.959 131.88 137.203V136.359L130.632 136.412C129.659 136.447 128.95 136.611 128.505 136.904C128.065 137.191 127.846 137.634 127.846 138.231C127.846 138.665 127.975 139.002 128.232 139.242C128.49 139.477 128.877 139.594 129.393 139.594ZM140.106 141.176C138.894 141.176 137.947 140.736 137.268 139.857C136.588 138.979 136.248 137.745 136.248 136.157C136.248 134.563 136.591 133.324 137.276 132.439C137.968 131.549 138.923 131.104 140.142 131.104C141.419 131.104 142.392 131.575 143.06 132.519H143.165C143.065 131.821 143.016 131.271 143.016 130.866V127.324H145.09V141H143.473L143.112 139.726H143.016C142.354 140.692 141.384 141.176 140.106 141.176ZM140.66 139.506C141.51 139.506 142.128 139.269 142.515 138.794C142.901 138.313 143.101 137.537 143.112 136.465V136.175C143.112 134.95 142.913 134.08 142.515 133.564C142.116 133.049 141.492 132.791 140.643 132.791C139.916 132.791 139.356 133.087 138.964 133.679C138.571 134.265 138.375 135.103 138.375 136.192C138.375 137.271 138.565 138.094 138.946 138.662C139.327 139.225 139.898 139.506 140.66 139.506ZM150.108 141H148.043V131.279H150.108V141ZM147.92 128.704C147.92 128.335 148.02 128.051 148.219 127.852C148.424 127.652 148.714 127.553 149.089 127.553C149.452 127.553 149.733 127.652 149.933 127.852C150.138 128.051 150.24 128.335 150.24 128.704C150.24 129.056 150.138 129.334 149.933 129.539C149.733 129.738 149.452 129.838 149.089 129.838C148.714 129.838 148.424 129.738 148.219 129.539C148.02 129.334 147.92 129.056 147.92 128.704ZM159.152 141L158.739 139.646H158.669C158.2 140.238 157.729 140.643 157.254 140.859C156.779 141.07 156.17 141.176 155.426 141.176C154.471 141.176 153.724 140.918 153.185 140.402C152.651 139.887 152.385 139.157 152.385 138.214C152.385 137.212 152.757 136.456 153.501 135.946C154.245 135.437 155.379 135.158 156.902 135.111L158.581 135.059V134.54C158.581 133.919 158.435 133.456 158.142 133.151C157.854 132.841 157.406 132.686 156.797 132.686C156.299 132.686 155.821 132.759 155.364 132.905C154.907 133.052 154.468 133.225 154.046 133.424L153.378 131.947C153.905 131.672 154.482 131.464 155.109 131.323C155.736 131.177 156.328 131.104 156.885 131.104C158.121 131.104 159.053 131.373 159.68 131.912C160.312 132.451 160.629 133.298 160.629 134.452V141H159.152ZM156.076 139.594C156.826 139.594 157.427 139.386 157.878 138.97C158.335 138.548 158.563 137.959 158.563 137.203V136.359L157.315 136.412C156.343 136.447 155.634 136.611 155.188 136.904C154.749 137.191 154.529 137.634 154.529 138.231C154.529 138.665 154.658 139.002 154.916 139.242C155.174 139.477 155.561 139.594 156.076 139.594ZM171.466 141.176C170.253 141.176 169.307 140.736 168.627 139.857C167.947 138.979 167.607 137.745 167.607 136.157C167.607 134.563 167.95 133.324 168.636 132.439C169.327 131.549 170.282 131.104 171.501 131.104C172.778 131.104 173.751 131.575 174.419 132.519H174.524C174.425 131.821 174.375 131.271 174.375 130.866V127.324H176.449V141H174.832L174.472 139.726H174.375C173.713 140.692 172.743 141.176 171.466 141.176ZM172.02 139.506C172.869 139.506 173.487 139.269 173.874 138.794C174.261 138.313 174.46 137.537 174.472 136.465V136.175C174.472 134.95 174.272 134.08 173.874 133.564C173.476 133.049 172.852 132.791 172.002 132.791C171.275 132.791 170.716 133.087 170.323 133.679C169.931 134.265 169.734 135.103 169.734 136.192C169.734 137.271 169.925 138.094 170.306 138.662C170.687 139.225 171.258 139.506 172.02 139.506ZM183.647 141.176C182.136 141.176 180.952 140.736 180.097 139.857C179.247 138.973 178.822 137.757 178.822 136.21C178.822 134.622 179.218 133.374 180.009 132.466C180.8 131.558 181.887 131.104 183.27 131.104C184.553 131.104 185.566 131.493 186.311 132.272C187.055 133.052 187.427 134.124 187.427 135.489V136.605H180.949C180.979 137.549 181.233 138.275 181.714 138.785C182.194 139.289 182.871 139.541 183.744 139.541C184.318 139.541 184.852 139.488 185.344 139.383C185.842 139.271 186.375 139.09 186.943 138.838V140.517C186.439 140.757 185.93 140.927 185.414 141.026C184.898 141.126 184.31 141.176 183.647 141.176ZM183.27 132.668C182.613 132.668 182.086 132.876 181.688 133.292C181.295 133.708 181.061 134.314 180.984 135.111H185.396C185.385 134.309 185.191 133.702 184.816 133.292C184.441 132.876 183.926 132.668 183.27 132.668ZM194.669 141V128.15H196.77V141H194.669ZM208.503 141H206.429V135.023C206.429 134.273 206.276 133.714 205.972 133.345C205.673 132.976 205.195 132.791 204.539 132.791C203.666 132.791 203.027 133.049 202.623 133.564C202.219 134.08 202.017 134.944 202.017 136.157V141H199.951V131.279H201.568L201.858 132.554H201.964C202.257 132.091 202.673 131.733 203.212 131.481C203.751 131.229 204.349 131.104 205.005 131.104C207.337 131.104 208.503 132.29 208.503 134.663V141ZM213.592 141L209.9 131.279H212.08L214.058 136.931C214.397 137.88 214.603 138.647 214.673 139.233H214.743C214.796 138.812 215.001 138.044 215.358 136.931L217.336 131.279H219.533L215.824 141H213.592ZM225.255 141.176C223.743 141.176 222.56 140.736 221.704 139.857C220.854 138.973 220.43 137.757 220.43 136.21C220.43 134.622 220.825 133.374 221.616 132.466C222.407 131.558 223.494 131.104 224.877 131.104C226.16 131.104 227.174 131.493 227.918 132.272C228.662 133.052 229.034 134.124 229.034 135.489V136.605H222.557C222.586 137.549 222.841 138.275 223.321 138.785C223.802 139.289 224.479 139.541 225.352 139.541C225.926 139.541 226.459 139.488 226.951 139.383C227.449 139.271 227.982 139.09 228.551 138.838V140.517C228.047 140.757 227.537 140.927 227.021 141.026C226.506 141.126 225.917 141.176 225.255 141.176ZM224.877 132.668C224.221 132.668 223.693 132.876 223.295 133.292C222.902 133.708 222.668 134.314 222.592 135.111H227.004C226.992 134.309 226.799 133.702 226.424 133.292C226.049 132.876 225.533 132.668 224.877 132.668ZM236.312 131.104C236.728 131.104 237.07 131.133 237.34 131.191L237.138 133.116C236.845 133.046 236.54 133.011 236.224 133.011C235.397 133.011 234.727 133.28 234.211 133.819C233.701 134.358 233.446 135.059 233.446 135.92V141H231.381V131.279H232.998L233.271 132.993H233.376C233.698 132.413 234.117 131.953 234.633 131.613C235.154 131.273 235.714 131.104 236.312 131.104ZM247.702 141H245.628V135.023C245.628 134.273 245.476 133.714 245.171 133.345C244.872 132.976 244.395 132.791 243.738 132.791C242.865 132.791 242.227 133.049 241.822 133.564C241.418 134.08 241.216 134.944 241.216 136.157V141H239.15V131.279H240.768L241.058 132.554H241.163C241.456 132.091 241.872 131.733 242.411 131.481C242.95 131.229 243.548 131.104 244.204 131.104C246.536 131.104 247.702 132.29 247.702 134.663V141ZM259.198 136.122C259.198 137.71 258.791 138.949 257.977 139.84C257.162 140.73 256.028 141.176 254.575 141.176C253.667 141.176 252.864 140.971 252.167 140.561C251.47 140.15 250.934 139.562 250.559 138.794C250.184 138.026 249.996 137.136 249.996 136.122C249.996 134.546 250.4 133.315 251.209 132.431C252.018 131.546 253.157 131.104 254.628 131.104C256.034 131.104 257.147 131.558 257.968 132.466C258.788 133.368 259.198 134.587 259.198 136.122ZM252.123 136.122C252.123 138.366 252.952 139.488 254.61 139.488C256.251 139.488 257.071 138.366 257.071 136.122C257.071 133.901 256.245 132.791 254.593 132.791C253.726 132.791 253.096 133.078 252.703 133.652C252.316 134.227 252.123 135.05 252.123 136.122ZM265.412 137.054V135.296H269.93V137.054H265.412ZM279.035 141H276.952V128.15H284.203V129.926H279.035V133.942H283.878V135.727H279.035V141ZM288.378 141H286.312V131.279H288.378V141ZM286.189 128.704C286.189 128.335 286.289 128.051 286.488 127.852C286.693 127.652 286.983 127.553 287.358 127.553C287.722 127.553 288.003 127.652 288.202 127.852C288.407 128.051 288.51 128.335 288.51 128.704C288.51 129.056 288.407 129.334 288.202 129.539C288.003 129.738 287.722 129.838 287.358 129.838C286.983 129.838 286.693 129.738 286.488 129.539C286.289 129.334 286.189 129.056 286.189 128.704ZM299.892 141H297.817V135.023C297.817 134.273 297.665 133.714 297.36 133.345C297.062 132.976 296.584 132.791 295.928 132.791C295.055 132.791 294.416 133.049 294.012 133.564C293.607 134.08 293.405 134.944 293.405 136.157V141H291.34V131.279H292.957L293.247 132.554H293.353C293.646 132.091 294.062 131.733 294.601 131.481C295.14 131.229 295.737 131.104 296.394 131.104C298.726 131.104 299.892 132.29 299.892 134.663V141ZM304.831 141H302.766V127.324H304.831V141ZM313.875 141L313.462 139.646H313.392C312.923 140.238 312.451 140.643 311.977 140.859C311.502 141.07 310.893 141.176 310.148 141.176C309.193 141.176 308.446 140.918 307.907 140.402C307.374 139.887 307.107 139.157 307.107 138.214C307.107 137.212 307.479 136.456 308.224 135.946C308.968 135.437 310.102 135.158 311.625 135.111L313.304 135.059V134.54C313.304 133.919 313.157 133.456 312.864 133.151C312.577 132.841 312.129 132.686 311.52 132.686C311.021 132.686 310.544 132.759 310.087 132.905C309.63 133.052 309.19 133.225 308.769 133.424L308.101 131.947C308.628 131.672 309.205 131.464 309.832 131.323C310.459 131.177 311.051 131.104 311.607 131.104C312.844 131.104 313.775 131.373 314.402 131.912C315.035 132.451 315.352 133.298 315.352 134.452V141H313.875ZM310.799 139.594C311.549 139.594 312.149 139.386 312.601 138.97C313.058 138.548 313.286 137.959 313.286 137.203V136.359L312.038 136.412C311.065 136.447 310.356 136.611 309.911 136.904C309.472 137.191 309.252 137.634 309.252 138.231C309.252 138.665 309.381 139.002 309.639 139.242C309.896 139.477 310.283 139.594 310.799 139.594ZM313.471 130.093C312.75 129.665 312.082 129.138 311.467 128.511C310.863 129.114 310.204 129.642 309.489 130.093H308.101V129.873C309.22 128.713 309.964 127.825 310.333 127.21H312.618C312.987 127.854 313.737 128.742 314.868 129.873V130.093H313.471ZM326.786 141H324.712V135.023C324.712 134.273 324.56 133.714 324.255 133.345C323.956 132.976 323.479 132.791 322.822 132.791C321.949 132.791 321.311 133.049 320.906 133.564C320.502 134.08 320.3 134.944 320.3 136.157V141H318.234V131.279H319.852L320.142 132.554H320.247C320.54 132.091 320.956 131.733 321.495 131.481C322.034 131.229 322.632 131.104 323.288 131.104C325.62 131.104 326.786 132.29 326.786 134.663V141ZM332.938 141.176C331.726 141.176 330.779 140.736 330.1 139.857C329.42 138.979 329.08 137.745 329.08 136.157C329.08 134.563 329.423 133.324 330.108 132.439C330.8 131.549 331.755 131.104 332.974 131.104C334.251 131.104 335.224 131.575 335.892 132.519H335.997C335.897 131.821 335.848 131.271 335.848 130.866V127.324H337.922V141H336.305L335.944 139.726H335.848C335.186 140.692 334.216 141.176 332.938 141.176ZM333.492 139.506C334.342 139.506 334.96 139.269 335.347 138.794C335.733 138.313 335.933 137.537 335.944 136.465V136.175C335.944 134.95 335.745 134.08 335.347 133.564C334.948 133.049 334.324 132.791 333.475 132.791C332.748 132.791 332.188 133.087 331.796 133.679C331.403 134.265 331.207 135.103 331.207 136.192C331.207 137.271 331.397 138.094 331.778 138.662C332.159 139.225 332.73 139.506 333.492 139.506ZM342.94 141H340.875V131.279H342.94V141ZM340.752 128.704C340.752 128.335 340.852 128.051 341.051 127.852C341.256 127.652 341.546 127.553 341.921 127.553C342.284 127.553 342.565 127.652 342.765 127.852C342.97 128.051 343.072 128.335 343.072 128.704C343.072 129.056 342.97 129.334 342.765 129.539C342.565 129.738 342.284 129.838 341.921 129.838C341.546 129.838 341.256 129.738 341.051 129.539C340.852 129.334 340.752 129.056 340.752 128.704ZM351.984 141L351.571 139.646H351.501C351.032 140.238 350.561 140.643 350.086 140.859C349.611 141.07 349.002 141.176 348.258 141.176C347.303 141.176 346.556 140.918 346.017 140.402C345.483 139.887 345.217 139.157 345.217 138.214C345.217 137.212 345.589 136.456 346.333 135.946C347.077 135.437 348.211 135.158 349.734 135.111L351.413 135.059V134.54C351.413 133.919 351.267 133.456 350.974 133.151C350.687 132.841 350.238 132.686 349.629 132.686C349.131 132.686 348.653 132.759 348.196 132.905C347.739 133.052 347.3 133.225 346.878 133.424L346.21 131.947C346.737 131.672 347.314 131.464 347.941 131.323C348.568 131.177 349.16 131.104 349.717 131.104C350.953 131.104 351.885 131.373 352.512 131.912C353.145 132.451 353.461 133.298 353.461 134.452V141H351.984ZM348.908 139.594C349.658 139.594 350.259 139.386 350.71 138.97C351.167 138.548 351.396 137.959 351.396 137.203V136.359L350.147 136.412C349.175 136.447 348.466 136.611 348.021 136.904C347.581 137.191 347.361 137.634 347.361 138.231C347.361 138.665 347.49 139.002 347.748 139.242C348.006 139.477 348.393 139.594 348.908 139.594Z" fill="black"/>
<path d="M102.375 55.8906H103.672C104.542 55.8906 105.172 55.7292 105.562 55.4062C105.953 55.0833 106.148 54.6042 106.148 53.9688C106.148 53.3229 105.938 52.8594 105.516 52.5781C105.094 52.2969 104.458 52.1562 103.609 52.1562H102.375V55.8906ZM102.375 57.4375V62H100.508V50.5781H103.734C105.208 50.5781 106.299 50.8542 107.008 51.4062C107.716 51.9583 108.07 52.7917 108.07 53.9062C108.07 55.3281 107.331 56.3411 105.852 56.9453L109.078 62H106.953L104.219 57.4375H102.375ZM117.203 62H110.742V50.5781H117.203V52.1562H112.609V55.2656H116.914V56.8281H112.609V60.4141H117.203V62ZM124.539 52.0156C123.466 52.0156 122.622 52.3958 122.008 53.1562C121.393 53.9167 121.086 54.9661 121.086 56.3047C121.086 57.7057 121.38 58.7656 121.969 59.4844C122.562 60.2031 123.419 60.5625 124.539 60.5625C125.023 60.5625 125.492 60.5156 125.945 60.4219C126.398 60.3229 126.87 60.1979 127.359 60.0469V61.6484C126.464 61.987 125.448 62.1562 124.312 62.1562C122.641 62.1562 121.357 61.651 120.461 60.6406C119.565 59.625 119.117 58.1745 119.117 56.2891C119.117 55.1016 119.333 54.0625 119.766 53.1719C120.203 52.2812 120.833 51.599 121.656 51.125C122.479 50.651 123.445 50.4141 124.555 50.4141C125.721 50.4141 126.799 50.6589 127.789 51.1484L127.117 52.7031C126.732 52.5208 126.323 52.362 125.891 52.2266C125.464 52.0859 125.013 52.0156 124.539 52.0156Z" fill="#949494"/>
<path d="M102.375 165.891H103.672C104.542 165.891 105.172 165.729 105.562 165.406C105.953 165.083 106.148 164.604 106.148 163.969C106.148 163.323 105.938 162.859 105.516 162.578C105.094 162.297 104.458 162.156 103.609 162.156H102.375V165.891ZM102.375 167.438V172H100.508V160.578H103.734C105.208 160.578 106.299 160.854 107.008 161.406C107.716 161.958 108.07 162.792 108.07 163.906C108.07 165.328 107.331 166.341 105.852 166.945L109.078 172H106.953L104.219 167.438H102.375ZM117.203 172H110.742V160.578H117.203V162.156H112.609V165.266H116.914V166.828H112.609V170.414H117.203V172ZM124.539 162.016C123.466 162.016 122.622 162.396 122.008 163.156C121.393 163.917 121.086 164.966 121.086 166.305C121.086 167.706 121.38 168.766 121.969 169.484C122.562 170.203 123.419 170.562 124.539 170.562C125.023 170.562 125.492 170.516 125.945 170.422C126.398 170.323 126.87 170.198 127.359 170.047V171.648C126.464 171.987 125.448 172.156 124.312 172.156C122.641 172.156 121.357 171.651 120.461 170.641C119.565 169.625 119.117 168.174 119.117 166.289C119.117 165.102 119.333 164.062 119.766 163.172C120.203 162.281 120.833 161.599 121.656 161.125C122.479 160.651 123.445 160.414 124.555 160.414C125.721 160.414 126.799 160.659 127.789 161.148L127.117 162.703C126.732 162.521 126.323 162.362 125.891 162.227C125.464 162.086 125.013 162.016 124.539 162.016Z" fill="#949494"/>
<path d="M173.359 62H171.508V50.5781H177.953V52.1562H173.359V55.7266H177.664V57.3125H173.359V62ZM180.023 62V50.5781H181.891V62H180.023ZM194.43 62H192.141L186.523 52.8984H186.461L186.5 53.4062C186.573 54.375 186.609 55.2604 186.609 56.0625V62H184.914V50.5781H187.18L192.781 59.6328H192.828C192.818 59.513 192.797 59.0781 192.766 58.3281C192.734 57.5729 192.719 56.9844 192.719 56.5625V50.5781H194.43V62Z" fill="#949494"/>
<path d="M173.359 172H171.508V160.578H177.953V162.156H173.359V165.727H177.664V167.312H173.359V172ZM180.023 172V160.578H181.891V172H180.023ZM194.43 172H192.141L186.523 162.898H186.461L186.5 163.406C186.573 164.375 186.609 165.26 186.609 166.062V172H184.914V160.578H187.18L192.781 169.633H192.828C192.818 169.513 192.797 169.078 192.766 168.328C192.734 167.573 192.719 166.984 192.719 166.562V160.578H194.43V172Z" fill="#949494"/>
<path d="M230.39 62H223.615V60.7832L226.192 58.1924C226.953 57.4131 227.457 56.8617 227.703 56.5381C227.954 56.21 228.136 55.9023 228.25 55.6152C228.364 55.3281 228.421 55.0205 228.421 54.6924C228.421 54.2412 228.284 53.8857 228.011 53.626C227.742 53.3662 227.368 53.2363 226.89 53.2363C226.507 53.2363 226.135 53.307 225.775 53.4482C225.42 53.5895 225.007 53.8447 224.538 54.2139L223.67 53.1543C224.226 52.6849 224.766 52.3522 225.29 52.1562C225.814 51.9603 226.372 51.8623 226.965 51.8623C227.895 51.8623 228.64 52.1061 229.2 52.5938C229.761 53.0768 230.041 53.7285 230.041 54.5488C230.041 55 229.959 55.4284 229.795 55.834C229.635 56.2396 229.387 56.6589 229.05 57.0918C228.717 57.5202 228.161 58.1012 227.382 58.835L225.646 60.5166V60.585H230.39V62ZM238.012 54.3027C238.012 54.9362 237.827 55.4648 237.458 55.8887C237.089 56.3079 236.569 56.5905 235.899 56.7363V56.791C236.701 56.8913 237.303 57.1419 237.704 57.543C238.105 57.9395 238.306 58.4681 238.306 59.1289C238.306 60.0905 237.966 60.8333 237.287 61.3574C236.608 61.877 235.642 62.1367 234.389 62.1367C233.281 62.1367 232.347 61.9567 231.586 61.5967V60.168C232.01 60.3776 232.459 60.5394 232.933 60.6533C233.407 60.7673 233.862 60.8242 234.3 60.8242C235.075 60.8242 235.653 60.6807 236.036 60.3936C236.419 60.1064 236.61 59.6621 236.61 59.0605C236.61 58.5273 236.398 58.1354 235.975 57.8848C235.551 57.6341 234.885 57.5088 233.979 57.5088H233.11V56.2031H233.992C235.587 56.2031 236.385 55.6517 236.385 54.5488C236.385 54.1204 236.246 53.79 235.968 53.5576C235.69 53.3252 235.28 53.209 234.737 53.209C234.359 53.209 233.994 53.2637 233.644 53.373C233.293 53.4779 232.878 53.6852 232.399 53.9951L231.613 52.874C232.529 52.1995 233.593 51.8623 234.806 51.8623C235.813 51.8623 236.599 52.0788 237.164 52.5117C237.729 52.9447 238.012 53.5417 238.012 54.3027ZM246.331 62.1367C245.388 62.1367 244.652 61.7949 244.123 61.1113C243.594 60.4277 243.33 59.4684 243.33 58.2334C243.33 56.9938 243.597 56.0299 244.13 55.3418C244.668 54.6491 245.41 54.3027 246.358 54.3027C247.352 54.3027 248.108 54.6696 248.628 55.4033H248.71C248.632 54.861 248.594 54.4326 248.594 54.1182V51.3633H250.207V62H248.949L248.669 61.0088H248.594C248.079 61.7607 247.325 62.1367 246.331 62.1367ZM246.762 60.8379C247.423 60.8379 247.903 60.6533 248.204 60.2842C248.505 59.9105 248.66 59.3066 248.669 58.4727V58.2471C248.669 57.2946 248.514 56.6178 248.204 56.2168C247.894 55.8158 247.409 55.6152 246.748 55.6152C246.183 55.6152 245.748 55.8454 245.442 56.3057C245.137 56.7614 244.984 57.4131 244.984 58.2607C244.984 59.0993 245.132 59.7396 245.429 60.1816C245.725 60.6191 246.169 60.8379 246.762 60.8379ZM255.806 62.1367C254.63 62.1367 253.709 61.7949 253.044 61.1113C252.383 60.4232 252.053 59.4775 252.053 58.2744C252.053 57.0394 252.36 56.0687 252.976 55.3623C253.591 54.6559 254.436 54.3027 255.512 54.3027C256.51 54.3027 257.298 54.6058 257.877 55.2119C258.456 55.818 258.745 56.652 258.745 57.7139V58.582H253.707C253.73 59.3158 253.928 59.8809 254.302 60.2773C254.675 60.6693 255.202 60.8652 255.881 60.8652C256.327 60.8652 256.742 60.8242 257.125 60.7422C257.512 60.6556 257.927 60.5143 258.369 60.3184V61.624C257.977 61.8109 257.581 61.943 257.18 62.0205C256.779 62.098 256.321 62.1367 255.806 62.1367ZM255.512 55.5195C255.001 55.5195 254.591 55.6813 254.281 56.0049C253.976 56.3285 253.794 56.8001 253.734 57.4199H257.166C257.157 56.7956 257.007 56.3239 256.715 56.0049C256.423 55.6813 256.022 55.5195 255.512 55.5195ZM270.578 62H268.965V57.3379C268.965 56.7591 268.855 56.3285 268.637 56.0459C268.418 55.7588 268.076 55.6152 267.611 55.6152C266.992 55.6152 266.536 55.818 266.244 56.2236C265.957 56.6247 265.813 57.2946 265.813 58.2334V62H264.207V54.4395H265.465L265.69 55.4307H265.772C265.982 55.0706 266.285 54.7926 266.682 54.5967C267.083 54.4007 267.522 54.3027 268.001 54.3027C269.163 54.3027 269.933 54.6992 270.312 55.4922H270.421C270.644 55.1185 270.959 54.8268 271.364 54.6172C271.77 54.4076 272.235 54.3027 272.759 54.3027C273.661 54.3027 274.317 54.5306 274.728 54.9863C275.142 55.4421 275.35 56.137 275.35 57.0713V62H273.743V57.3379C273.743 56.7591 273.632 56.3285 273.408 56.0459C273.189 55.7588 272.848 55.6152 272.383 55.6152C271.758 55.6152 271.3 55.8112 271.009 56.2031C270.722 56.5905 270.578 57.1875 270.578 57.9941V62ZM282.322 62L282.001 60.9473H281.946C281.582 61.4076 281.215 61.722 280.846 61.8906C280.477 62.0547 280.003 62.1367 279.424 62.1367C278.681 62.1367 278.1 61.9362 277.681 61.5352C277.266 61.1341 277.059 60.5667 277.059 59.833C277.059 59.0537 277.348 58.4658 277.927 58.0693C278.506 57.6729 279.387 57.4564 280.572 57.4199L281.878 57.3789V56.9756C281.878 56.4925 281.764 56.1325 281.536 55.8955C281.313 55.654 280.964 55.5332 280.49 55.5332C280.103 55.5332 279.731 55.5902 279.376 55.7041C279.021 55.818 278.679 55.9525 278.351 56.1074L277.831 54.959C278.241 54.7448 278.69 54.583 279.178 54.4736C279.665 54.3597 280.126 54.3027 280.559 54.3027C281.52 54.3027 282.245 54.5124 282.732 54.9316C283.225 55.3509 283.471 56.0094 283.471 56.9072V62H282.322ZM279.93 60.9062C280.513 60.9062 280.98 60.7445 281.331 60.4209C281.687 60.0928 281.864 59.6348 281.864 59.0469V58.3906L280.894 58.4316C280.137 58.459 279.586 58.5866 279.239 58.8145C278.897 59.0378 278.727 59.3818 278.727 59.8467C278.727 60.1839 278.827 60.446 279.027 60.6328C279.228 60.8151 279.529 60.9062 279.93 60.9062ZM289.548 54.3027C289.871 54.3027 290.138 54.3255 290.348 54.3711L290.19 55.8682C289.963 55.8135 289.726 55.7861 289.479 55.7861C288.837 55.7861 288.315 55.9958 287.914 56.415C287.518 56.8343 287.319 57.3789 287.319 58.0488V62H285.713V54.4395H286.971L287.183 55.7725H287.265C287.515 55.3213 287.841 54.9635 288.242 54.6992C288.648 54.4349 289.083 54.3027 289.548 54.3027ZM294.805 62.1367C293.661 62.1367 292.79 61.804 292.193 61.1387C291.601 60.4688 291.305 59.5094 291.305 58.2607C291.305 56.9893 291.615 56.0117 292.234 55.3281C292.859 54.6445 293.759 54.3027 294.935 54.3027C295.732 54.3027 296.45 54.4508 297.088 54.7471L296.603 56.0391C295.924 55.7747 295.363 55.6426 294.921 55.6426C293.613 55.6426 292.959 56.5107 292.959 58.2471C292.959 59.0947 293.121 59.7327 293.444 60.1611C293.772 60.585 294.251 60.7969 294.88 60.7969C295.595 60.7969 296.272 60.6191 296.91 60.2637V61.665C296.623 61.8337 296.315 61.9544 295.987 62.0273C295.664 62.1003 295.27 62.1367 294.805 62.1367ZM295.953 63.8457C295.953 64.8574 295.258 65.3633 293.868 65.3633C293.567 65.3633 293.292 65.3291 293.041 65.2607V64.3242C293.287 64.388 293.567 64.4199 293.882 64.4199C294.128 64.4199 294.322 64.3812 294.463 64.3037C294.609 64.2308 294.682 64.0918 294.682 63.8867C294.682 63.4993 294.274 63.2487 293.458 63.1348L294.032 62H295.071L294.791 62.6016C295.156 62.6973 295.44 62.8522 295.646 63.0664C295.851 63.2852 295.953 63.5449 295.953 63.8457ZM305.394 58.2061C305.394 59.4411 305.077 60.4049 304.443 61.0977C303.81 61.7904 302.928 62.1367 301.798 62.1367C301.091 62.1367 300.467 61.9772 299.925 61.6582C299.382 61.3392 298.965 60.8812 298.674 60.2842C298.382 59.6872 298.236 58.9945 298.236 58.2061C298.236 56.9801 298.551 56.0231 299.18 55.335C299.809 54.6468 300.695 54.3027 301.839 54.3027C302.933 54.3027 303.799 54.6559 304.437 55.3623C305.075 56.0641 305.394 57.012 305.394 58.2061ZM299.891 58.2061C299.891 59.9515 300.535 60.8242 301.825 60.8242C303.101 60.8242 303.739 59.9515 303.739 58.2061C303.739 56.4788 303.097 55.6152 301.812 55.6152C301.137 55.6152 300.647 55.8385 300.342 56.2852C300.041 56.7318 299.891 57.3721 299.891 58.2061ZM310.227 58.9307V57.5635H313.74V58.9307H310.227ZM325.272 62H318.498V60.7832L321.075 58.1924C321.836 57.4131 322.34 56.8617 322.586 56.5381C322.837 56.21 323.019 55.9023 323.133 55.6152C323.247 55.3281 323.304 55.0205 323.304 54.6924C323.304 54.2412 323.167 53.8857 322.894 53.626C322.625 53.3662 322.251 53.2363 321.772 53.2363C321.39 53.2363 321.018 53.307 320.658 53.4482C320.303 53.5895 319.89 53.8447 319.421 54.2139L318.553 53.1543C319.109 52.6849 319.649 52.3522 320.173 52.1562C320.697 51.9603 321.255 51.8623 321.848 51.8623C322.777 51.8623 323.522 52.1061 324.083 52.5938C324.644 53.0768 324.924 53.7285 324.924 54.5488C324.924 55 324.842 55.4284 324.678 55.834C324.518 56.2396 324.27 56.6589 323.933 57.0918C323.6 57.5202 323.044 58.1012 322.265 58.835L320.528 60.5166V60.585H325.272V62ZM327.631 62L331.582 53.4346H326.387V52.0195H333.298V53.1406L329.367 62H327.631ZM341.214 62.1367C340.271 62.1367 339.535 61.7949 339.006 61.1113C338.477 60.4277 338.213 59.4684 338.213 58.2334C338.213 56.9938 338.479 56.0299 339.013 55.3418C339.55 54.6491 340.293 54.3027 341.241 54.3027C342.235 54.3027 342.991 54.6696 343.511 55.4033H343.593C343.515 54.861 343.477 54.4326 343.477 54.1182V51.3633H345.09V62H343.832L343.552 61.0088H343.477C342.962 61.7607 342.207 62.1367 341.214 62.1367ZM341.645 60.8379C342.305 60.8379 342.786 60.6533 343.087 60.2842C343.388 59.9105 343.543 59.3066 343.552 58.4727V58.2471C343.552 57.2946 343.397 56.6178 343.087 56.2168C342.777 55.8158 342.292 55.6152 341.631 55.6152C341.066 55.6152 340.631 55.8454 340.325 56.3057C340.02 56.7614 339.867 57.4131 339.867 58.2607C339.867 59.0993 340.015 59.7396 340.312 60.1816C340.608 60.6191 341.052 60.8379 341.645 60.8379ZM350.688 62.1367C349.513 62.1367 348.592 61.7949 347.927 61.1113C347.266 60.4232 346.936 59.4775 346.936 58.2744C346.936 57.0394 347.243 56.0687 347.858 55.3623C348.474 54.6559 349.319 54.3027 350.395 54.3027C351.393 54.3027 352.181 54.6058 352.76 55.2119C353.339 55.818 353.628 56.652 353.628 57.7139V58.582H348.59C348.613 59.3158 348.811 59.8809 349.185 60.2773C349.558 60.6693 350.085 60.8652 350.764 60.8652C351.21 60.8652 351.625 60.8242 352.008 60.7422C352.395 60.6556 352.81 60.5143 353.252 60.3184V61.624C352.86 61.8109 352.464 61.943 352.062 62.0205C351.661 62.098 351.203 62.1367 350.688 62.1367ZM350.395 55.5195C349.884 55.5195 349.474 55.6813 349.164 56.0049C348.859 56.3285 348.676 56.8001 348.617 57.4199H352.049C352.04 56.7956 351.889 56.3239 351.598 56.0049C351.306 55.6813 350.905 55.5195 350.395 55.5195ZM365.461 62H363.848V57.3379C363.848 56.7591 363.738 56.3285 363.52 56.0459C363.301 55.7588 362.959 55.6152 362.494 55.6152C361.874 55.6152 361.419 55.818 361.127 56.2236C360.84 56.6247 360.696 57.2946 360.696 58.2334V62H359.09V54.4395H360.348L360.573 55.4307H360.655C360.865 55.0706 361.168 54.7926 361.564 54.5967C361.965 54.4007 362.405 54.3027 362.884 54.3027C364.046 54.3027 364.816 54.6992 365.194 55.4922H365.304C365.527 55.1185 365.841 54.8268 366.247 54.6172C366.653 54.4076 367.118 54.3027 367.642 54.3027C368.544 54.3027 369.2 54.5306 369.61 54.9863C370.025 55.4421 370.232 56.137 370.232 57.0713V62H368.626V57.3379C368.626 56.7591 368.514 56.3285 368.291 56.0459C368.072 55.7588 367.73 55.6152 367.266 55.6152C366.641 55.6152 366.183 55.8112 365.892 56.2031C365.604 56.5905 365.461 57.1875 365.461 57.9941V62ZM377.205 62L376.884 60.9473H376.829C376.465 61.4076 376.098 61.722 375.729 61.8906C375.359 62.0547 374.885 62.1367 374.307 62.1367C373.564 62.1367 372.983 61.9362 372.563 61.5352C372.149 61.1341 371.941 60.5667 371.941 59.833C371.941 59.0537 372.231 58.4658 372.81 58.0693C373.388 57.6729 374.27 57.4564 375.455 57.4199L376.761 57.3789V56.9756C376.761 56.4925 376.647 56.1325 376.419 55.8955C376.196 55.654 375.847 55.5332 375.373 55.5332C374.986 55.5332 374.614 55.5902 374.259 55.7041C373.903 55.818 373.562 55.9525 373.233 56.1074L372.714 54.959C373.124 54.7448 373.573 54.583 374.061 54.4736C374.548 54.3597 375.008 54.3027 375.441 54.3027C376.403 54.3027 377.128 54.5124 377.615 54.9316C378.107 55.3509 378.354 56.0094 378.354 56.9072V62H377.205ZM374.812 60.9062C375.396 60.9062 375.863 60.7445 376.214 60.4209C376.569 60.0928 376.747 59.6348 376.747 59.0469V58.3906L375.776 58.4316C375.02 58.459 374.468 58.5866 374.122 58.8145C373.78 59.0378 373.609 59.3818 373.609 59.8467C373.609 60.1839 373.71 60.446 373.91 60.6328C374.111 60.8151 374.411 60.9062 374.812 60.9062ZM384.431 54.3027C384.754 54.3027 385.021 54.3255 385.23 54.3711L385.073 55.8682C384.845 55.8135 384.608 55.7861 384.362 55.7861C383.72 55.7861 383.198 55.9958 382.797 56.415C382.4 56.8343 382.202 57.3789 382.202 58.0488V62H380.596V54.4395H381.854L382.065 55.7725H382.147C382.398 55.3213 382.724 54.9635 383.125 54.6992C383.531 54.4349 383.966 54.3027 384.431 54.3027ZM389.688 62.1367C388.544 62.1367 387.673 61.804 387.076 61.1387C386.484 60.4688 386.188 59.5094 386.188 58.2607C386.188 56.9893 386.497 56.0117 387.117 55.3281C387.742 54.6445 388.642 54.3027 389.817 54.3027C390.615 54.3027 391.333 54.4508 391.971 54.7471L391.485 56.0391C390.806 55.7747 390.246 55.6426 389.804 55.6426C388.496 55.6426 387.842 56.5107 387.842 58.2471C387.842 59.0947 388.004 59.7327 388.327 60.1611C388.655 60.585 389.134 60.7969 389.763 60.7969C390.478 60.7969 391.155 60.6191 391.793 60.2637V61.665C391.506 61.8337 391.198 61.9544 390.87 62.0273C390.547 62.1003 390.152 62.1367 389.688 62.1367ZM390.836 63.8457C390.836 64.8574 390.141 65.3633 388.751 65.3633C388.45 65.3633 388.174 65.3291 387.924 65.2607V64.3242C388.17 64.388 388.45 64.4199 388.765 64.4199C389.011 64.4199 389.204 64.3812 389.346 64.3037C389.492 64.2308 389.564 64.0918 389.564 63.8867C389.564 63.4993 389.157 63.2487 388.341 63.1348L388.915 62H389.954L389.674 62.6016C390.038 62.6973 390.323 62.8522 390.528 63.0664C390.733 63.2852 390.836 63.5449 390.836 63.8457ZM400.276 58.2061C400.276 59.4411 399.96 60.4049 399.326 61.0977C398.693 61.7904 397.811 62.1367 396.681 62.1367C395.974 62.1367 395.35 61.9772 394.808 61.6582C394.265 61.3392 393.848 60.8812 393.557 60.2842C393.265 59.6872 393.119 58.9945 393.119 58.2061C393.119 56.9801 393.434 56.0231 394.062 55.335C394.691 54.6468 395.578 54.3027 396.722 54.3027C397.815 54.3027 398.681 54.6559 399.319 55.3623C399.957 56.0641 400.276 57.012 400.276 58.2061ZM394.773 58.2061C394.773 59.9515 395.418 60.8242 396.708 60.8242C397.984 60.8242 398.622 59.9515 398.622 58.2061C398.622 56.4788 397.979 55.6152 396.694 55.6152C396.02 55.6152 395.53 55.8385 395.225 56.2852C394.924 56.7318 394.773 57.3721 394.773 58.2061ZM415.644 62H408.869V60.7832L411.446 58.1924C412.207 57.4131 412.711 56.8617 412.957 56.5381C413.208 56.21 413.39 55.9023 413.504 55.6152C413.618 55.3281 413.675 55.0205 413.675 54.6924C413.675 54.2412 413.538 53.8857 413.265 53.626C412.996 53.3662 412.622 53.2363 412.144 53.2363C411.761 53.2363 411.389 53.307 411.029 53.4482C410.674 53.5895 410.261 53.8447 409.792 54.2139L408.924 53.1543C409.48 52.6849 410.02 52.3522 410.544 52.1562C411.068 51.9603 411.626 51.8623 412.219 51.8623C413.148 51.8623 413.894 52.1061 414.454 52.5938C415.015 53.0768 415.295 53.7285 415.295 54.5488C415.295 55 415.213 55.4284 415.049 55.834C414.889 56.2396 414.641 56.6589 414.304 57.0918C413.971 57.5202 413.415 58.1012 412.636 58.835L410.899 60.5166V60.585H415.644V62ZM423.642 57.0029C423.642 58.7393 423.361 60.029 422.801 60.8721C422.245 61.7152 421.393 62.1367 420.244 62.1367C419.132 62.1367 418.289 61.7015 417.715 60.8311C417.141 59.9606 416.854 58.6846 416.854 57.0029C416.854 55.2393 417.132 53.9404 417.688 53.1064C418.248 52.2679 419.1 51.8486 420.244 51.8486C421.361 51.8486 422.206 52.2861 422.78 53.1611C423.354 54.0361 423.642 55.3167 423.642 57.0029ZM418.48 57.0029C418.48 58.3656 418.619 59.3385 418.897 59.9219C419.18 60.5052 419.629 60.7969 420.244 60.7969C420.859 60.7969 421.308 60.5007 421.591 59.9082C421.878 59.3158 422.021 58.3473 422.021 57.0029C422.021 55.6631 421.878 54.6947 421.591 54.0977C421.308 53.4961 420.859 53.1953 420.244 53.1953C419.629 53.1953 419.18 53.4893 418.897 54.0771C418.619 54.665 418.48 55.6403 418.48 57.0029ZM431.64 62H424.865V60.7832L427.442 58.1924C428.203 57.4131 428.707 56.8617 428.953 56.5381C429.204 56.21 429.386 55.9023 429.5 55.6152C429.614 55.3281 429.671 55.0205 429.671 54.6924C429.671 54.2412 429.534 53.8857 429.261 53.626C428.992 53.3662 428.618 53.2363 428.14 53.2363C427.757 53.2363 427.385 53.307 427.025 53.4482C426.67 53.5895 426.257 53.8447 425.788 54.2139L424.92 53.1543C425.476 52.6849 426.016 52.3522 426.54 52.1562C427.064 51.9603 427.622 51.8623 428.215 51.8623C429.145 51.8623 429.89 52.1061 430.45 52.5938C431.011 53.0768 431.291 53.7285 431.291 54.5488C431.291 55 431.209 55.4284 431.045 55.834C430.885 56.2396 430.637 56.6589 430.3 57.0918C429.967 57.5202 429.411 58.1012 428.632 58.835L426.896 60.5166V60.585H431.64V62ZM437.58 62H435.974V55.5469C435.974 54.7767 435.992 54.166 436.028 53.7148C435.924 53.8242 435.794 53.945 435.639 54.0771C435.488 54.2093 434.978 54.6286 434.107 55.335L433.301 54.3164L436.24 52.0059H437.58V62Z" fill="#949494"/>
<path d="M230.39 172H223.615V170.783L226.192 168.192C226.953 167.413 227.457 166.862 227.703 166.538C227.954 166.21 228.136 165.902 228.25 165.615C228.364 165.328 228.421 165.021 228.421 164.692C228.421 164.241 228.284 163.886 228.011 163.626C227.742 163.366 227.368 163.236 226.89 163.236C226.507 163.236 226.135 163.307 225.775 163.448C225.42 163.59 225.007 163.845 224.538 164.214L223.67 163.154C224.226 162.685 224.766 162.352 225.29 162.156C225.814 161.96 226.372 161.862 226.965 161.862C227.895 161.862 228.64 162.106 229.2 162.594C229.761 163.077 230.041 163.729 230.041 164.549C230.041 165 229.959 165.428 229.795 165.834C229.635 166.24 229.387 166.659 229.05 167.092C228.717 167.52 228.161 168.101 227.382 168.835L225.646 170.517V170.585H230.39V172ZM238.012 164.303C238.012 164.936 237.827 165.465 237.458 165.889C237.089 166.308 236.569 166.59 235.899 166.736V166.791C236.701 166.891 237.303 167.142 237.704 167.543C238.105 167.939 238.306 168.468 238.306 169.129C238.306 170.09 237.966 170.833 237.287 171.357C236.608 171.877 235.642 172.137 234.389 172.137C233.281 172.137 232.347 171.957 231.586 171.597V170.168C232.01 170.378 232.459 170.539 232.933 170.653C233.407 170.767 233.862 170.824 234.3 170.824C235.075 170.824 235.653 170.681 236.036 170.394C236.419 170.106 236.61 169.662 236.61 169.061C236.61 168.527 236.398 168.135 235.975 167.885C235.551 167.634 234.885 167.509 233.979 167.509H233.11V166.203H233.992C235.587 166.203 236.385 165.652 236.385 164.549C236.385 164.12 236.246 163.79 235.968 163.558C235.69 163.325 235.28 163.209 234.737 163.209C234.359 163.209 233.994 163.264 233.644 163.373C233.293 163.478 232.878 163.685 232.399 163.995L231.613 162.874C232.529 162.2 233.593 161.862 234.806 161.862C235.813 161.862 236.599 162.079 237.164 162.512C237.729 162.945 238.012 163.542 238.012 164.303ZM246.331 172.137C245.388 172.137 244.652 171.795 244.123 171.111C243.594 170.428 243.33 169.468 243.33 168.233C243.33 166.994 243.597 166.03 244.13 165.342C244.668 164.649 245.41 164.303 246.358 164.303C247.352 164.303 248.108 164.67 248.628 165.403H248.71C248.632 164.861 248.594 164.433 248.594 164.118V161.363H250.207V172H248.949L248.669 171.009H248.594C248.079 171.761 247.325 172.137 246.331 172.137ZM246.762 170.838C247.423 170.838 247.903 170.653 248.204 170.284C248.505 169.91 248.66 169.307 248.669 168.473V168.247C248.669 167.295 248.514 166.618 248.204 166.217C247.894 165.816 247.409 165.615 246.748 165.615C246.183 165.615 245.748 165.845 245.442 166.306C245.137 166.761 244.984 167.413 244.984 168.261C244.984 169.099 245.132 169.74 245.429 170.182C245.725 170.619 246.169 170.838 246.762 170.838ZM255.806 172.137C254.63 172.137 253.709 171.795 253.044 171.111C252.383 170.423 252.053 169.478 252.053 168.274C252.053 167.039 252.36 166.069 252.976 165.362C253.591 164.656 254.436 164.303 255.512 164.303C256.51 164.303 257.298 164.606 257.877 165.212C258.456 165.818 258.745 166.652 258.745 167.714V168.582H253.707C253.73 169.316 253.928 169.881 254.302 170.277C254.675 170.669 255.202 170.865 255.881 170.865C256.327 170.865 256.742 170.824 257.125 170.742C257.512 170.656 257.927 170.514 258.369 170.318V171.624C257.977 171.811 257.581 171.943 257.18 172.021C256.779 172.098 256.321 172.137 255.806 172.137ZM255.512 165.52C255.001 165.52 254.591 165.681 254.281 166.005C253.976 166.328 253.794 166.8 253.734 167.42H257.166C257.157 166.796 257.007 166.324 256.715 166.005C256.423 165.681 256.022 165.52 255.512 165.52ZM270.578 172H268.965V167.338C268.965 166.759 268.855 166.328 268.637 166.046C268.418 165.759 268.076 165.615 267.611 165.615C266.992 165.615 266.536 165.818 266.244 166.224C265.957 166.625 265.813 167.295 265.813 168.233V172H264.207V164.439H265.465L265.69 165.431H265.772C265.982 165.071 266.285 164.793 266.682 164.597C267.083 164.401 267.522 164.303 268.001 164.303C269.163 164.303 269.933 164.699 270.312 165.492H270.421C270.644 165.118 270.959 164.827 271.364 164.617C271.77 164.408 272.235 164.303 272.759 164.303C273.661 164.303 274.317 164.531 274.728 164.986C275.142 165.442 275.35 166.137 275.35 167.071V172H273.743V167.338C273.743 166.759 273.632 166.328 273.408 166.046C273.189 165.759 272.848 165.615 272.383 165.615C271.758 165.615 271.3 165.811 271.009 166.203C270.722 166.59 270.578 167.188 270.578 167.994V172ZM282.322 172L282.001 170.947H281.946C281.582 171.408 281.215 171.722 280.846 171.891C280.477 172.055 280.003 172.137 279.424 172.137C278.681 172.137 278.1 171.936 277.681 171.535C277.266 171.134 277.059 170.567 277.059 169.833C277.059 169.054 277.348 168.466 277.927 168.069C278.506 167.673 279.387 167.456 280.572 167.42L281.878 167.379V166.976C281.878 166.493 281.764 166.132 281.536 165.896C281.313 165.654 280.964 165.533 280.49 165.533C280.103 165.533 279.731 165.59 279.376 165.704C279.021 165.818 278.679 165.952 278.351 166.107L277.831 164.959C278.241 164.745 278.69 164.583 279.178 164.474C279.665 164.36 280.126 164.303 280.559 164.303C281.52 164.303 282.245 164.512 282.732 164.932C283.225 165.351 283.471 166.009 283.471 166.907V172H282.322ZM279.93 170.906C280.513 170.906 280.98 170.744 281.331 170.421C281.687 170.093 281.864 169.635 281.864 169.047V168.391L280.894 168.432C280.137 168.459 279.586 168.587 279.239 168.814C278.897 169.038 278.727 169.382 278.727 169.847C278.727 170.184 278.827 170.446 279.027 170.633C279.228 170.815 279.529 170.906 279.93 170.906ZM289.548 164.303C289.871 164.303 290.138 164.326 290.348 164.371L290.19 165.868C289.963 165.813 289.726 165.786 289.479 165.786C288.837 165.786 288.315 165.996 287.914 166.415C287.518 166.834 287.319 167.379 287.319 168.049V172H285.713V164.439H286.971L287.183 165.772H287.265C287.515 165.321 287.841 164.964 288.242 164.699C288.648 164.435 289.083 164.303 289.548 164.303ZM294.805 172.137C293.661 172.137 292.79 171.804 292.193 171.139C291.601 170.469 291.305 169.509 291.305 168.261C291.305 166.989 291.615 166.012 292.234 165.328C292.859 164.645 293.759 164.303 294.935 164.303C295.732 164.303 296.45 164.451 297.088 164.747L296.603 166.039C295.924 165.775 295.363 165.643 294.921 165.643C293.613 165.643 292.959 166.511 292.959 168.247C292.959 169.095 293.121 169.733 293.444 170.161C293.772 170.585 294.251 170.797 294.88 170.797C295.595 170.797 296.272 170.619 296.91 170.264V171.665C296.623 171.834 296.315 171.954 295.987 172.027C295.664 172.1 295.27 172.137 294.805 172.137ZM295.953 173.846C295.953 174.857 295.258 175.363 293.868 175.363C293.567 175.363 293.292 175.329 293.041 175.261V174.324C293.287 174.388 293.567 174.42 293.882 174.42C294.128 174.42 294.322 174.381 294.463 174.304C294.609 174.231 294.682 174.092 294.682 173.887C294.682 173.499 294.274 173.249 293.458 173.135L294.032 172H295.071L294.791 172.602C295.156 172.697 295.44 172.852 295.646 173.066C295.851 173.285 295.953 173.545 295.953 173.846ZM305.394 168.206C305.394 169.441 305.077 170.405 304.443 171.098C303.81 171.79 302.928 172.137 301.798 172.137C301.091 172.137 300.467 171.977 299.925 171.658C299.382 171.339 298.965 170.881 298.674 170.284C298.382 169.687 298.236 168.994 298.236 168.206C298.236 166.98 298.551 166.023 299.18 165.335C299.809 164.647 300.695 164.303 301.839 164.303C302.933 164.303 303.799 164.656 304.437 165.362C305.075 166.064 305.394 167.012 305.394 168.206ZM299.891 168.206C299.891 169.951 300.535 170.824 301.825 170.824C303.101 170.824 303.739 169.951 303.739 168.206C303.739 166.479 303.097 165.615 301.812 165.615C301.137 165.615 300.647 165.839 300.342 166.285C300.041 166.732 299.891 167.372 299.891 168.206ZM310.227 168.931V167.563H313.74V168.931H310.227ZM325.272 172H318.498V170.783L321.075 168.192C321.836 167.413 322.34 166.862 322.586 166.538C322.837 166.21 323.019 165.902 323.133 165.615C323.247 165.328 323.304 165.021 323.304 164.692C323.304 164.241 323.167 163.886 322.894 163.626C322.625 163.366 322.251 163.236 321.772 163.236C321.39 163.236 321.018 163.307 320.658 163.448C320.303 163.59 319.89 163.845 319.421 164.214L318.553 163.154C319.109 162.685 319.649 162.352 320.173 162.156C320.697 161.96 321.255 161.862 321.848 161.862C322.777 161.862 323.522 162.106 324.083 162.594C324.644 163.077 324.924 163.729 324.924 164.549C324.924 165 324.842 165.428 324.678 165.834C324.518 166.24 324.27 166.659 323.933 167.092C323.6 167.52 323.044 168.101 322.265 168.835L320.528 170.517V170.585H325.272V172ZM327.631 172L331.582 163.435H326.387V162.02H333.298V163.141L329.367 172H327.631ZM341.214 172.137C340.271 172.137 339.535 171.795 339.006 171.111C338.477 170.428 338.213 169.468 338.213 168.233C338.213 166.994 338.479 166.03 339.013 165.342C339.55 164.649 340.293 164.303 341.241 164.303C342.235 164.303 342.991 164.67 343.511 165.403H343.593C343.515 164.861 343.477 164.433 343.477 164.118V161.363H345.09V172H343.832L343.552 171.009H343.477C342.962 171.761 342.207 172.137 341.214 172.137ZM341.645 170.838C342.305 170.838 342.786 170.653 343.087 170.284C343.388 169.91 343.543 169.307 343.552 168.473V168.247C343.552 167.295 343.397 166.618 343.087 166.217C342.777 165.816 342.292 165.615 341.631 165.615C341.066 165.615 340.631 165.845 340.325 166.306C340.02 166.761 339.867 167.413 339.867 168.261C339.867 169.099 340.015 169.74 340.312 170.182C340.608 170.619 341.052 170.838 341.645 170.838ZM350.688 172.137C349.513 172.137 348.592 171.795 347.927 171.111C347.266 170.423 346.936 169.478 346.936 168.274C346.936 167.039 347.243 166.069 347.858 165.362C348.474 164.656 349.319 164.303 350.395 164.303C351.393 164.303 352.181 164.606 352.76 165.212C353.339 165.818 353.628 166.652 353.628 167.714V168.582H348.59C348.613 169.316 348.811 169.881 349.185 170.277C349.558 170.669 350.085 170.865 350.764 170.865C351.21 170.865 351.625 170.824 352.008 170.742C352.395 170.656 352.81 170.514 353.252 170.318V171.624C352.86 171.811 352.464 171.943 352.062 172.021C351.661 172.098 351.203 172.137 350.688 172.137ZM350.395 165.52C349.884 165.52 349.474 165.681 349.164 166.005C348.859 166.328 348.676 166.8 348.617 167.42H352.049C352.04 166.796 351.889 166.324 351.598 166.005C351.306 165.681 350.905 165.52 350.395 165.52ZM365.461 172H363.848V167.338C363.848 166.759 363.738 166.328 363.52 166.046C363.301 165.759 362.959 165.615 362.494 165.615C361.874 165.615 361.419 165.818 361.127 166.224C360.84 166.625 360.696 167.295 360.696 168.233V172H359.09V164.439H360.348L360.573 165.431H360.655C360.865 165.071 361.168 164.793 361.564 164.597C361.965 164.401 362.405 164.303 362.884 164.303C364.046 164.303 364.816 164.699 365.194 165.492H365.304C365.527 165.118 365.841 164.827 366.247 164.617C366.653 164.408 367.118 164.303 367.642 164.303C368.544 164.303 369.2 164.531 369.61 164.986C370.025 165.442 370.232 166.137 370.232 167.071V172H368.626V167.338C368.626 166.759 368.514 166.328 368.291 166.046C368.072 165.759 367.73 165.615 367.266 165.615C366.641 165.615 366.183 165.811 365.892 166.203C365.604 166.59 365.461 167.188 365.461 167.994V172ZM377.205 172L376.884 170.947H376.829C376.465 171.408 376.098 171.722 375.729 171.891C375.359 172.055 374.885 172.137 374.307 172.137C373.564 172.137 372.983 171.936 372.563 171.535C372.149 171.134 371.941 170.567 371.941 169.833C371.941 169.054 372.231 168.466 372.81 168.069C373.388 167.673 374.27 167.456 375.455 167.42L376.761 167.379V166.976C376.761 166.493 376.647 166.132 376.419 165.896C376.196 165.654 375.847 165.533 375.373 165.533C374.986 165.533 374.614 165.59 374.259 165.704C373.903 165.818 373.562 165.952 373.233 166.107L372.714 164.959C373.124 164.745 373.573 164.583 374.061 164.474C374.548 164.36 375.008 164.303 375.441 164.303C376.403 164.303 377.128 164.512 377.615 164.932C378.107 165.351 378.354 166.009 378.354 166.907V172H377.205ZM374.812 170.906C375.396 170.906 375.863 170.744 376.214 170.421C376.569 170.093 376.747 169.635 376.747 169.047V168.391L375.776 168.432C375.02 168.459 374.468 168.587 374.122 168.814C373.78 169.038 373.609 169.382 373.609 169.847C373.609 170.184 373.71 170.446 373.91 170.633C374.111 170.815 374.411 170.906 374.812 170.906ZM384.431 164.303C384.754 164.303 385.021 164.326 385.23 164.371L385.073 165.868C384.845 165.813 384.608 165.786 384.362 165.786C383.72 165.786 383.198 165.996 382.797 166.415C382.4 166.834 382.202 167.379 382.202 168.049V172H380.596V164.439H381.854L382.065 165.772H382.147C382.398 165.321 382.724 164.964 383.125 164.699C383.531 164.435 383.966 164.303 384.431 164.303ZM389.688 172.137C388.544 172.137 387.673 171.804 387.076 171.139C386.484 170.469 386.188 169.509 386.188 168.261C386.188 166.989 386.497 166.012 387.117 165.328C387.742 164.645 388.642 164.303 389.817 164.303C390.615 164.303 391.333 164.451 391.971 164.747L391.485 166.039C390.806 165.775 390.246 165.643 389.804 165.643C388.496 165.643 387.842 166.511 387.842 168.247C387.842 169.095 388.004 169.733 388.327 170.161C388.655 170.585 389.134 170.797 389.763 170.797C390.478 170.797 391.155 170.619 391.793 170.264V171.665C391.506 171.834 391.198 171.954 390.87 172.027C390.547 172.1 390.152 172.137 389.688 172.137ZM390.836 173.846C390.836 174.857 390.141 175.363 388.751 175.363C388.45 175.363 388.174 175.329 387.924 175.261V174.324C388.17 174.388 388.45 174.42 388.765 174.42C389.011 174.42 389.204 174.381 389.346 174.304C389.492 174.231 389.564 174.092 389.564 173.887C389.564 173.499 389.157 173.249 388.341 173.135L388.915 172H389.954L389.674 172.602C390.038 172.697 390.323 172.852 390.528 173.066C390.733 173.285 390.836 173.545 390.836 173.846ZM400.276 168.206C400.276 169.441 399.96 170.405 399.326 171.098C398.693 171.79 397.811 172.137 396.681 172.137C395.974 172.137 395.35 171.977 394.808 171.658C394.265 171.339 393.848 170.881 393.557 170.284C393.265 169.687 393.119 168.994 393.119 168.206C393.119 166.98 393.434 166.023 394.062 165.335C394.691 164.647 395.578 164.303 396.722 164.303C397.815 164.303 398.681 164.656 399.319 165.362C399.957 166.064 400.276 167.012 400.276 168.206ZM394.773 168.206C394.773 169.951 395.418 170.824 396.708 170.824C397.984 170.824 398.622 169.951 398.622 168.206C398.622 166.479 397.979 165.615 396.694 165.615C396.02 165.615 395.53 165.839 395.225 166.285C394.924 166.732 394.773 167.372 394.773 168.206ZM415.644 172H408.869V170.783L411.446 168.192C412.207 167.413 412.711 166.862 412.957 166.538C413.208 166.21 413.39 165.902 413.504 165.615C413.618 165.328 413.675 165.021 413.675 164.692C413.675 164.241 413.538 163.886 413.265 163.626C412.996 163.366 412.622 163.236 412.144 163.236C411.761 163.236 411.389 163.307 411.029 163.448C410.674 163.59 410.261 163.845 409.792 164.214L408.924 163.154C409.48 162.685 410.02 162.352 410.544 162.156C411.068 161.96 411.626 161.862 412.219 161.862C413.148 161.862 413.894 162.106 414.454 162.594C415.015 163.077 415.295 163.729 415.295 164.549C415.295 165 415.213 165.428 415.049 165.834C414.889 166.24 414.641 166.659 414.304 167.092C413.971 167.52 413.415 168.101 412.636 168.835L410.899 170.517V170.585H415.644V172ZM423.642 167.003C423.642 168.739 423.361 170.029 422.801 170.872C422.245 171.715 421.393 172.137 420.244 172.137C419.132 172.137 418.289 171.701 417.715 170.831C417.141 169.961 416.854 168.685 416.854 167.003C416.854 165.239 417.132 163.94 417.688 163.106C418.248 162.268 419.1 161.849 420.244 161.849C421.361 161.849 422.206 162.286 422.78 163.161C423.354 164.036 423.642 165.317 423.642 167.003ZM418.48 167.003C418.48 168.366 418.619 169.339 418.897 169.922C419.18 170.505 419.629 170.797 420.244 170.797C420.859 170.797 421.308 170.501 421.591 169.908C421.878 169.316 422.021 168.347 422.021 167.003C422.021 165.663 421.878 164.695 421.591 164.098C421.308 163.496 420.859 163.195 420.244 163.195C419.629 163.195 419.18 163.489 418.897 164.077C418.619 164.665 418.48 165.64 418.48 167.003ZM431.64 172H424.865V170.783L427.442 168.192C428.203 167.413 428.707 166.862 428.953 166.538C429.204 166.21 429.386 165.902 429.5 165.615C429.614 165.328 429.671 165.021 429.671 164.692C429.671 164.241 429.534 163.886 429.261 163.626C428.992 163.366 428.618 163.236 428.14 163.236C427.757 163.236 427.385 163.307 427.025 163.448C426.67 163.59 426.257 163.845 425.788 164.214L424.92 163.154C425.476 162.685 426.016 162.352 426.54 162.156C427.064 161.96 427.622 161.862 428.215 161.862C429.145 161.862 429.89 162.106 430.45 162.594C431.011 163.077 431.291 163.729 431.291 164.549C431.291 165 431.209 165.428 431.045 165.834C430.885 166.24 430.637 166.659 430.3 167.092C429.967 167.52 429.411 168.101 428.632 168.835L426.896 170.517V170.585H431.64V172ZM437.58 172H435.974V165.547C435.974 164.777 435.992 164.166 436.028 163.715C435.924 163.824 435.794 163.945 435.639 164.077C435.488 164.209 434.978 164.629 434.107 165.335L433.301 164.316L436.24 162.006H437.58V172Z" fill="#949494"/>
<path d="M157.333 60.3337V58.667L150.25 54.5003V49.917C150.25 49.2253 149.692 48.667 149 48.667C148.308 48.667 147.75 49.2253 147.75 49.917V54.5003L140.667 58.667V60.3337L147.75 58.2503V62.8337L145.667 64.0837V65.3337L149 64.5003L152.333 65.3337V64.0837L150.25 62.8337V58.2503L157.333 60.3337Z" fill="#949494"/>
<path d="M157.333 170.334V168.667L150.25 164.5V159.917C150.25 159.225 149.692 158.667 149 158.667C148.308 158.667 147.75 159.225 147.75 159.917V164.5L140.667 168.667V170.334L147.75 168.25V172.834L145.667 174.084V175.334L149 174.5L152.333 175.334V174.084L150.25 172.834V168.25L157.333 170.334Z" fill="#949494"/>
<path d="M486 196L486 9.53674e-07" stroke="#A1A1A1"/>
</svg>
