<svg width="446" height="182" viewBox="0 0 446 182" fill="none" xmlns="http://www.w3.org/2000/svg">
<circle cx="29.5" cy="29.5" r="29.5" fill="#D721F5"/>
<circle cx="29.5" cy="150.5" r="29.5" fill="#F52147"/>
<path d="M107.965 27H100.696V14.1504H107.965V15.9258H102.797V19.4238H107.64V21.1816H102.797V25.2158H107.965V27ZM117.062 24.2314C117.062 25.1807 116.716 25.9102 116.024 26.4199C115.333 26.9238 114.343 27.1758 113.054 27.1758C111.759 27.1758 110.719 26.9795 109.934 26.5869V24.8027C111.076 25.3301 112.14 25.5938 113.124 25.5938C114.396 25.5938 115.031 25.21 115.031 24.4424C115.031 24.1963 114.961 23.9912 114.82 23.8271C114.68 23.6631 114.448 23.4932 114.126 23.3174C113.804 23.1416 113.355 22.9424 112.781 22.7197C111.662 22.2861 110.903 21.8525 110.505 21.4189C110.112 20.9854 109.916 20.4229 109.916 19.7314C109.916 18.8994 110.25 18.2549 110.918 17.7979C111.592 17.335 112.506 17.1035 113.66 17.1035C114.803 17.1035 115.884 17.335 116.903 17.7979L116.235 19.3535C115.187 18.9199 114.305 18.7031 113.59 18.7031C112.5 18.7031 111.955 19.0137 111.955 19.6348C111.955 19.9395 112.096 20.1973 112.377 20.4082C112.664 20.6191 113.285 20.9092 114.24 21.2783C115.043 21.5889 115.626 21.873 115.989 22.1309C116.353 22.3887 116.622 22.6875 116.798 23.0273C116.974 23.3613 117.062 23.7627 117.062 24.2314ZM122.924 25.5059C123.428 25.5059 123.932 25.4268 124.436 25.2686V26.8242C124.207 26.9238 123.911 27.0059 123.548 27.0703C123.19 27.1406 122.818 27.1758 122.432 27.1758C120.475 27.1758 119.496 26.1445 119.496 24.082V18.8438H118.169V17.9297L119.593 17.1738L120.296 15.1172H121.57V17.2793H124.339V18.8438H121.57V24.0469C121.57 24.5449 121.693 24.9141 121.939 25.1543C122.191 25.3887 122.52 25.5059 122.924 25.5059ZM132.469 27L132.056 25.6465H131.985C131.517 26.2383 131.045 26.6426 130.57 26.8594C130.096 27.0703 129.486 27.1758 128.742 27.1758C127.787 27.1758 127.04 26.918 126.501 26.4023C125.968 25.8867 125.701 25.1572 125.701 24.2139C125.701 23.2119 126.073 22.4561 126.817 21.9463C127.562 21.4365 128.695 21.1582 130.219 21.1113L131.897 21.0586V20.54C131.897 19.9189 131.751 19.4561 131.458 19.1514C131.171 18.8408 130.723 18.6855 130.113 18.6855C129.615 18.6855 129.138 18.7588 128.681 18.9053C128.224 19.0518 127.784 19.2246 127.362 19.4238L126.694 17.9473C127.222 17.6719 127.799 17.4639 128.426 17.3232C129.053 17.1768 129.645 17.1035 130.201 17.1035C131.438 17.1035 132.369 17.373 132.996 17.9121C133.629 18.4512 133.945 19.2979 133.945 20.4521V27H132.469ZM129.393 25.5938C130.143 25.5938 130.743 25.3857 131.194 24.9697C131.651 24.5479 131.88 23.959 131.88 23.2031V22.3594L130.632 22.4121C129.659 22.4473 128.95 22.6113 128.505 22.9043C128.065 23.1914 127.846 23.6338 127.846 24.2314C127.846 24.665 127.975 25.002 128.232 25.2422C128.49 25.4766 128.877 25.5938 129.393 25.5938ZM140.106 27.1758C138.894 27.1758 137.947 26.7363 137.268 25.8574C136.588 24.9785 136.248 23.7451 136.248 22.1572C136.248 20.5635 136.591 19.3242 137.276 18.4395C137.968 17.5488 138.923 17.1035 140.142 17.1035C141.419 17.1035 142.392 17.5752 143.06 18.5186H143.165C143.065 17.8213 143.016 17.2705 143.016 16.8662V13.3242H145.09V27H143.473L143.112 25.7256H143.016C142.354 26.6924 141.384 27.1758 140.106 27.1758ZM140.66 25.5059C141.51 25.5059 142.128 25.2686 142.515 24.7939C142.901 24.3135 143.101 23.5371 143.112 22.4648V22.1748C143.112 20.9502 142.913 20.0801 142.515 19.5645C142.116 19.0488 141.492 18.791 140.643 18.791C139.916 18.791 139.356 19.0869 138.964 19.6787C138.571 20.2646 138.375 21.1025 138.375 22.1924C138.375 23.2705 138.565 24.0938 138.946 24.6621C139.327 25.2246 139.898 25.5059 140.66 25.5059ZM150.108 27H148.043V17.2793H150.108V27ZM147.92 14.7041C147.92 14.335 148.02 14.0508 148.219 13.8516C148.424 13.6523 148.714 13.5527 149.089 13.5527C149.452 13.5527 149.733 13.6523 149.933 13.8516C150.138 14.0508 150.24 14.335 150.24 14.7041C150.24 15.0557 150.138 15.334 149.933 15.5391C149.733 15.7383 149.452 15.8379 149.089 15.8379C148.714 15.8379 148.424 15.7383 148.219 15.5391C148.02 15.334 147.92 15.0557 147.92 14.7041ZM159.152 27L158.739 25.6465H158.669C158.2 26.2383 157.729 26.6426 157.254 26.8594C156.779 27.0703 156.17 27.1758 155.426 27.1758C154.471 27.1758 153.724 26.918 153.185 26.4023C152.651 25.8867 152.385 25.1572 152.385 24.2139C152.385 23.2119 152.757 22.4561 153.501 21.9463C154.245 21.4365 155.379 21.1582 156.902 21.1113L158.581 21.0586V20.54C158.581 19.9189 158.435 19.4561 158.142 19.1514C157.854 18.8408 157.406 18.6855 156.797 18.6855C156.299 18.6855 155.821 18.7588 155.364 18.9053C154.907 19.0518 154.468 19.2246 154.046 19.4238L153.378 17.9473C153.905 17.6719 154.482 17.4639 155.109 17.3232C155.736 17.1768 156.328 17.1035 156.885 17.1035C158.121 17.1035 159.053 17.373 159.68 17.9121C160.312 18.4512 160.629 19.2979 160.629 20.4521V27H159.152ZM156.076 25.5938C156.826 25.5938 157.427 25.3857 157.878 24.9697C158.335 24.5479 158.563 23.959 158.563 23.2031V22.3594L157.315 22.4121C156.343 22.4473 155.634 22.6113 155.188 22.9043C154.749 23.1914 154.529 23.6338 154.529 24.2314C154.529 24.665 154.658 25.002 154.916 25.2422C155.174 25.4766 155.561 25.5938 156.076 25.5938ZM171.466 27.1758C170.253 27.1758 169.307 26.7363 168.627 25.8574C167.947 24.9785 167.607 23.7451 167.607 22.1572C167.607 20.5635 167.95 19.3242 168.636 18.4395C169.327 17.5488 170.282 17.1035 171.501 17.1035C172.778 17.1035 173.751 17.5752 174.419 18.5186H174.524C174.425 17.8213 174.375 17.2705 174.375 16.8662V13.3242H176.449V27H174.832L174.472 25.7256H174.375C173.713 26.6924 172.743 27.1758 171.466 27.1758ZM172.02 25.5059C172.869 25.5059 173.487 25.2686 173.874 24.7939C174.261 24.3135 174.46 23.5371 174.472 22.4648V22.1748C174.472 20.9502 174.272 20.0801 173.874 19.5645C173.476 19.0488 172.852 18.791 172.002 18.791C171.275 18.791 170.716 19.0869 170.323 19.6787C169.931 20.2646 169.734 21.1025 169.734 22.1924C169.734 23.2705 169.925 24.0938 170.306 24.6621C170.687 25.2246 171.258 25.5059 172.02 25.5059ZM183.647 27.1758C182.136 27.1758 180.952 26.7363 180.097 25.8574C179.247 24.9727 178.822 23.7568 178.822 22.21C178.822 20.6221 179.218 19.374 180.009 18.4658C180.8 17.5576 181.887 17.1035 183.27 17.1035C184.553 17.1035 185.566 17.4932 186.311 18.2725C187.055 19.0518 187.427 20.124 187.427 21.4893V22.6055H180.949C180.979 23.5488 181.233 24.2754 181.714 24.7852C182.194 25.2891 182.871 25.541 183.744 25.541C184.318 25.541 184.852 25.4883 185.344 25.3828C185.842 25.2715 186.375 25.0898 186.943 24.8379V26.5166C186.439 26.7568 185.93 26.9268 185.414 27.0264C184.898 27.126 184.31 27.1758 183.647 27.1758ZM183.27 18.668C182.613 18.668 182.086 18.876 181.688 19.292C181.295 19.708 181.061 20.3145 180.984 21.1113H185.396C185.385 20.3086 185.191 19.7021 184.816 19.292C184.441 18.876 183.926 18.668 183.27 18.668ZM194.669 27V14.1504H196.77V27H194.669ZM208.503 27H206.429V21.0234C206.429 20.2734 206.276 19.7139 205.972 19.3447C205.673 18.9756 205.195 18.791 204.539 18.791C203.666 18.791 203.027 19.0488 202.623 19.5645C202.219 20.0801 202.017 20.9443 202.017 22.1572V27H199.951V17.2793H201.568L201.858 18.5537H201.964C202.257 18.0908 202.673 17.7334 203.212 17.4814C203.751 17.2295 204.349 17.1035 205.005 17.1035C207.337 17.1035 208.503 18.29 208.503 20.6631V27ZM213.592 27L209.9 17.2793H212.08L214.058 22.9307C214.397 23.8799 214.603 24.6475 214.673 25.2334H214.743C214.796 24.8115 215.001 24.0439 215.358 22.9307L217.336 17.2793H219.533L215.824 27H213.592ZM225.255 27.1758C223.743 27.1758 222.56 26.7363 221.704 25.8574C220.854 24.9727 220.43 23.7568 220.43 22.21C220.43 20.6221 220.825 19.374 221.616 18.4658C222.407 17.5576 223.494 17.1035 224.877 17.1035C226.16 17.1035 227.174 17.4932 227.918 18.2725C228.662 19.0518 229.034 20.124 229.034 21.4893V22.6055H222.557C222.586 23.5488 222.841 24.2754 223.321 24.7852C223.802 25.2891 224.479 25.541 225.352 25.541C225.926 25.541 226.459 25.4883 226.951 25.3828C227.449 25.2715 227.982 25.0898 228.551 24.8379V26.5166C228.047 26.7568 227.537 26.9268 227.021 27.0264C226.506 27.126 225.917 27.1758 225.255 27.1758ZM224.877 18.668C224.221 18.668 223.693 18.876 223.295 19.292C222.902 19.708 222.668 20.3145 222.592 21.1113H227.004C226.992 20.3086 226.799 19.7021 226.424 19.292C226.049 18.876 225.533 18.668 224.877 18.668ZM236.312 17.1035C236.728 17.1035 237.07 17.1328 237.34 17.1914L237.138 19.1162C236.845 19.0459 236.54 19.0107 236.224 19.0107C235.397 19.0107 234.727 19.2803 234.211 19.8193C233.701 20.3584 233.446 21.0586 233.446 21.9199V27H231.381V17.2793H232.998L233.271 18.9932H233.376C233.698 18.4131 234.117 17.9531 234.633 17.6133C235.154 17.2734 235.714 17.1035 236.312 17.1035ZM247.702 27H245.628V21.0234C245.628 20.2734 245.476 19.7139 245.171 19.3447C244.872 18.9756 244.395 18.791 243.738 18.791C242.865 18.791 242.227 19.0488 241.822 19.5645C241.418 20.0801 241.216 20.9443 241.216 22.1572V27H239.15V17.2793H240.768L241.058 18.5537H241.163C241.456 18.0908 241.872 17.7334 242.411 17.4814C242.95 17.2295 243.548 17.1035 244.204 17.1035C246.536 17.1035 247.702 18.29 247.702 20.6631V27ZM259.198 22.1221C259.198 23.71 258.791 24.9492 257.977 25.8398C257.162 26.7305 256.028 27.1758 254.575 27.1758C253.667 27.1758 252.864 26.9707 252.167 26.5605C251.47 26.1504 250.934 25.5615 250.559 24.7939C250.184 24.0264 249.996 23.1357 249.996 22.1221C249.996 20.5459 250.4 19.3154 251.209 18.4307C252.018 17.5459 253.157 17.1035 254.628 17.1035C256.034 17.1035 257.147 17.5576 257.968 18.4658C258.788 19.3682 259.198 20.5869 259.198 22.1221ZM252.123 22.1221C252.123 24.3662 252.952 25.4883 254.61 25.4883C256.251 25.4883 257.071 24.3662 257.071 22.1221C257.071 19.9014 256.245 18.791 254.593 18.791C253.726 18.791 253.096 19.0781 252.703 19.6523C252.316 20.2266 252.123 21.0498 252.123 22.1221ZM265.412 23.0537V21.2959H269.93V23.0537H265.412ZM279.035 27H276.952V14.1504H284.203V15.9258H279.035V19.9424H283.878V21.7266H279.035V27ZM288.378 27H286.312V17.2793H288.378V27ZM286.189 14.7041C286.189 14.335 286.289 14.0508 286.488 13.8516C286.693 13.6523 286.983 13.5527 287.358 13.5527C287.722 13.5527 288.003 13.6523 288.202 13.8516C288.407 14.0508 288.51 14.335 288.51 14.7041C288.51 15.0557 288.407 15.334 288.202 15.5391C288.003 15.7383 287.722 15.8379 287.358 15.8379C286.983 15.8379 286.693 15.7383 286.488 15.5391C286.289 15.334 286.189 15.0557 286.189 14.7041ZM299.892 27H297.817V21.0234C297.817 20.2734 297.665 19.7139 297.36 19.3447C297.062 18.9756 296.584 18.791 295.928 18.791C295.055 18.791 294.416 19.0488 294.012 19.5645C293.607 20.0801 293.405 20.9443 293.405 22.1572V27H291.34V17.2793H292.957L293.247 18.5537H293.353C293.646 18.0908 294.062 17.7334 294.601 17.4814C295.14 17.2295 295.737 17.1035 296.394 17.1035C298.726 17.1035 299.892 18.29 299.892 20.6631V27ZM304.831 27H302.766V13.3242H304.831V27ZM313.875 27L313.462 25.6465H313.392C312.923 26.2383 312.451 26.6426 311.977 26.8594C311.502 27.0703 310.893 27.1758 310.148 27.1758C309.193 27.1758 308.446 26.918 307.907 26.4023C307.374 25.8867 307.107 25.1572 307.107 24.2139C307.107 23.2119 307.479 22.4561 308.224 21.9463C308.968 21.4365 310.102 21.1582 311.625 21.1113L313.304 21.0586V20.54C313.304 19.9189 313.157 19.4561 312.864 19.1514C312.577 18.8408 312.129 18.6855 311.52 18.6855C311.021 18.6855 310.544 18.7588 310.087 18.9053C309.63 19.0518 309.19 19.2246 308.769 19.4238L308.101 17.9473C308.628 17.6719 309.205 17.4639 309.832 17.3232C310.459 17.1768 311.051 17.1035 311.607 17.1035C312.844 17.1035 313.775 17.373 314.402 17.9121C315.035 18.4512 315.352 19.2979 315.352 20.4521V27H313.875ZM310.799 25.5938C311.549 25.5938 312.149 25.3857 312.601 24.9697C313.058 24.5479 313.286 23.959 313.286 23.2031V22.3594L312.038 22.4121C311.065 22.4473 310.356 22.6113 309.911 22.9043C309.472 23.1914 309.252 23.6338 309.252 24.2314C309.252 24.665 309.381 25.002 309.639 25.2422C309.896 25.4766 310.283 25.5938 310.799 25.5938ZM313.471 16.0928C312.75 15.665 312.082 15.1377 311.467 14.5107C310.863 15.1143 310.204 15.6416 309.489 16.0928H308.101V15.873C309.22 14.7129 309.964 13.8252 310.333 13.21H312.618C312.987 13.8545 313.737 14.7422 314.868 15.873V16.0928H313.471ZM326.786 27H324.712V21.0234C324.712 20.2734 324.56 19.7139 324.255 19.3447C323.956 18.9756 323.479 18.791 322.822 18.791C321.949 18.791 321.311 19.0488 320.906 19.5645C320.502 20.0801 320.3 20.9443 320.3 22.1572V27H318.234V17.2793H319.852L320.142 18.5537H320.247C320.54 18.0908 320.956 17.7334 321.495 17.4814C322.034 17.2295 322.632 17.1035 323.288 17.1035C325.62 17.1035 326.786 18.29 326.786 20.6631V27ZM332.938 27.1758C331.726 27.1758 330.779 26.7363 330.1 25.8574C329.42 24.9785 329.08 23.7451 329.08 22.1572C329.08 20.5635 329.423 19.3242 330.108 18.4395C330.8 17.5488 331.755 17.1035 332.974 17.1035C334.251 17.1035 335.224 17.5752 335.892 18.5186H335.997C335.897 17.8213 335.848 17.2705 335.848 16.8662V13.3242H337.922V27H336.305L335.944 25.7256H335.848C335.186 26.6924 334.216 27.1758 332.938 27.1758ZM333.492 25.5059C334.342 25.5059 334.96 25.2686 335.347 24.7939C335.733 24.3135 335.933 23.5371 335.944 22.4648V22.1748C335.944 20.9502 335.745 20.0801 335.347 19.5645C334.948 19.0488 334.324 18.791 333.475 18.791C332.748 18.791 332.188 19.0869 331.796 19.6787C331.403 20.2646 331.207 21.1025 331.207 22.1924C331.207 23.2705 331.397 24.0938 331.778 24.6621C332.159 25.2246 332.73 25.5059 333.492 25.5059ZM342.94 27H340.875V17.2793H342.94V27ZM340.752 14.7041C340.752 14.335 340.852 14.0508 341.051 13.8516C341.256 13.6523 341.546 13.5527 341.921 13.5527C342.284 13.5527 342.565 13.6523 342.765 13.8516C342.97 14.0508 343.072 14.335 343.072 14.7041C343.072 15.0557 342.97 15.334 342.765 15.5391C342.565 15.7383 342.284 15.8379 341.921 15.8379C341.546 15.8379 341.256 15.7383 341.051 15.5391C340.852 15.334 340.752 15.0557 340.752 14.7041ZM351.984 27L351.571 25.6465H351.501C351.032 26.2383 350.561 26.6426 350.086 26.8594C349.611 27.0703 349.002 27.1758 348.258 27.1758C347.303 27.1758 346.556 26.918 346.017 26.4023C345.483 25.8867 345.217 25.1572 345.217 24.2139C345.217 23.2119 345.589 22.4561 346.333 21.9463C347.077 21.4365 348.211 21.1582 349.734 21.1113L351.413 21.0586V20.54C351.413 19.9189 351.267 19.4561 350.974 19.1514C350.687 18.8408 350.238 18.6855 349.629 18.6855C349.131 18.6855 348.653 18.7588 348.196 18.9053C347.739 19.0518 347.3 19.2246 346.878 19.4238L346.21 17.9473C346.737 17.6719 347.314 17.4639 347.941 17.3232C348.568 17.1768 349.16 17.1035 349.717 17.1035C350.953 17.1035 351.885 17.373 352.512 17.9121C353.145 18.4512 353.461 19.2979 353.461 20.4521V27H351.984ZM348.908 25.5938C349.658 25.5938 350.259 25.3857 350.71 24.9697C351.167 24.5479 351.396 23.959 351.396 23.2031V22.3594L350.147 22.4121C349.175 22.4473 348.466 22.6113 348.021 22.9043C347.581 23.1914 347.361 23.6338 347.361 24.2314C347.361 24.665 347.49 25.002 347.748 25.2422C348.006 25.4766 348.393 25.5938 348.908 25.5938Z" fill="black"/>
<path d="M107.965 137H100.696V124.15H107.965V125.926H102.797V129.424H107.64V131.182H102.797V135.216H107.965V137ZM117.062 134.231C117.062 135.181 116.716 135.91 116.024 136.42C115.333 136.924 114.343 137.176 113.054 137.176C111.759 137.176 110.719 136.979 109.934 136.587V134.803C111.076 135.33 112.14 135.594 113.124 135.594C114.396 135.594 115.031 135.21 115.031 134.442C115.031 134.196 114.961 133.991 114.82 133.827C114.68 133.663 114.448 133.493 114.126 133.317C113.804 133.142 113.355 132.942 112.781 132.72C111.662 132.286 110.903 131.853 110.505 131.419C110.112 130.985 109.916 130.423 109.916 129.731C109.916 128.899 110.25 128.255 110.918 127.798C111.592 127.335 112.506 127.104 113.66 127.104C114.803 127.104 115.884 127.335 116.903 127.798L116.235 129.354C115.187 128.92 114.305 128.703 113.59 128.703C112.5 128.703 111.955 129.014 111.955 129.635C111.955 129.939 112.096 130.197 112.377 130.408C112.664 130.619 113.285 130.909 114.24 131.278C115.043 131.589 115.626 131.873 115.989 132.131C116.353 132.389 116.622 132.688 116.798 133.027C116.974 133.361 117.062 133.763 117.062 134.231ZM122.924 135.506C123.428 135.506 123.932 135.427 124.436 135.269V136.824C124.207 136.924 123.911 137.006 123.548 137.07C123.19 137.141 122.818 137.176 122.432 137.176C120.475 137.176 119.496 136.145 119.496 134.082V128.844H118.169V127.93L119.593 127.174L120.296 125.117H121.57V127.279H124.339V128.844H121.57V134.047C121.57 134.545 121.693 134.914 121.939 135.154C122.191 135.389 122.52 135.506 122.924 135.506ZM132.469 137L132.056 135.646H131.985C131.517 136.238 131.045 136.643 130.57 136.859C130.096 137.07 129.486 137.176 128.742 137.176C127.787 137.176 127.04 136.918 126.501 136.402C125.968 135.887 125.701 135.157 125.701 134.214C125.701 133.212 126.073 132.456 126.817 131.946C127.562 131.437 128.695 131.158 130.219 131.111L131.897 131.059V130.54C131.897 129.919 131.751 129.456 131.458 129.151C131.171 128.841 130.723 128.686 130.113 128.686C129.615 128.686 129.138 128.759 128.681 128.905C128.224 129.052 127.784 129.225 127.362 129.424L126.694 127.947C127.222 127.672 127.799 127.464 128.426 127.323C129.053 127.177 129.645 127.104 130.201 127.104C131.438 127.104 132.369 127.373 132.996 127.912C133.629 128.451 133.945 129.298 133.945 130.452V137H132.469ZM129.393 135.594C130.143 135.594 130.743 135.386 131.194 134.97C131.651 134.548 131.88 133.959 131.88 133.203V132.359L130.632 132.412C129.659 132.447 128.95 132.611 128.505 132.904C128.065 133.191 127.846 133.634 127.846 134.231C127.846 134.665 127.975 135.002 128.232 135.242C128.49 135.477 128.877 135.594 129.393 135.594ZM140.106 137.176C138.894 137.176 137.947 136.736 137.268 135.857C136.588 134.979 136.248 133.745 136.248 132.157C136.248 130.563 136.591 129.324 137.276 128.439C137.968 127.549 138.923 127.104 140.142 127.104C141.419 127.104 142.392 127.575 143.06 128.519H143.165C143.065 127.821 143.016 127.271 143.016 126.866V123.324H145.09V137H143.473L143.112 135.726H143.016C142.354 136.692 141.384 137.176 140.106 137.176ZM140.66 135.506C141.51 135.506 142.128 135.269 142.515 134.794C142.901 134.313 143.101 133.537 143.112 132.465V132.175C143.112 130.95 142.913 130.08 142.515 129.564C142.116 129.049 141.492 128.791 140.643 128.791C139.916 128.791 139.356 129.087 138.964 129.679C138.571 130.265 138.375 131.103 138.375 132.192C138.375 133.271 138.565 134.094 138.946 134.662C139.327 135.225 139.898 135.506 140.66 135.506ZM150.108 137H148.043V127.279H150.108V137ZM147.92 124.704C147.92 124.335 148.02 124.051 148.219 123.852C148.424 123.652 148.714 123.553 149.089 123.553C149.452 123.553 149.733 123.652 149.933 123.852C150.138 124.051 150.24 124.335 150.24 124.704C150.24 125.056 150.138 125.334 149.933 125.539C149.733 125.738 149.452 125.838 149.089 125.838C148.714 125.838 148.424 125.738 148.219 125.539C148.02 125.334 147.92 125.056 147.92 124.704ZM159.152 137L158.739 135.646H158.669C158.2 136.238 157.729 136.643 157.254 136.859C156.779 137.07 156.17 137.176 155.426 137.176C154.471 137.176 153.724 136.918 153.185 136.402C152.651 135.887 152.385 135.157 152.385 134.214C152.385 133.212 152.757 132.456 153.501 131.946C154.245 131.437 155.379 131.158 156.902 131.111L158.581 131.059V130.54C158.581 129.919 158.435 129.456 158.142 129.151C157.854 128.841 157.406 128.686 156.797 128.686C156.299 128.686 155.821 128.759 155.364 128.905C154.907 129.052 154.468 129.225 154.046 129.424L153.378 127.947C153.905 127.672 154.482 127.464 155.109 127.323C155.736 127.177 156.328 127.104 156.885 127.104C158.121 127.104 159.053 127.373 159.68 127.912C160.312 128.451 160.629 129.298 160.629 130.452V137H159.152ZM156.076 135.594C156.826 135.594 157.427 135.386 157.878 134.97C158.335 134.548 158.563 133.959 158.563 133.203V132.359L157.315 132.412C156.343 132.447 155.634 132.611 155.188 132.904C154.749 133.191 154.529 133.634 154.529 134.231C154.529 134.665 154.658 135.002 154.916 135.242C155.174 135.477 155.561 135.594 156.076 135.594ZM171.466 137.176C170.253 137.176 169.307 136.736 168.627 135.857C167.947 134.979 167.607 133.745 167.607 132.157C167.607 130.563 167.95 129.324 168.636 128.439C169.327 127.549 170.282 127.104 171.501 127.104C172.778 127.104 173.751 127.575 174.419 128.519H174.524C174.425 127.821 174.375 127.271 174.375 126.866V123.324H176.449V137H174.832L174.472 135.726H174.375C173.713 136.692 172.743 137.176 171.466 137.176ZM172.02 135.506C172.869 135.506 173.487 135.269 173.874 134.794C174.261 134.313 174.46 133.537 174.472 132.465V132.175C174.472 130.95 174.272 130.08 173.874 129.564C173.476 129.049 172.852 128.791 172.002 128.791C171.275 128.791 170.716 129.087 170.323 129.679C169.931 130.265 169.734 131.103 169.734 132.192C169.734 133.271 169.925 134.094 170.306 134.662C170.687 135.225 171.258 135.506 172.02 135.506ZM183.647 137.176C182.136 137.176 180.952 136.736 180.097 135.857C179.247 134.973 178.822 133.757 178.822 132.21C178.822 130.622 179.218 129.374 180.009 128.466C180.8 127.558 181.887 127.104 183.27 127.104C184.553 127.104 185.566 127.493 186.311 128.272C187.055 129.052 187.427 130.124 187.427 131.489V132.605H180.949C180.979 133.549 181.233 134.275 181.714 134.785C182.194 135.289 182.871 135.541 183.744 135.541C184.318 135.541 184.852 135.488 185.344 135.383C185.842 135.271 186.375 135.09 186.943 134.838V136.517C186.439 136.757 185.93 136.927 185.414 137.026C184.898 137.126 184.31 137.176 183.647 137.176ZM183.27 128.668C182.613 128.668 182.086 128.876 181.688 129.292C181.295 129.708 181.061 130.314 180.984 131.111H185.396C185.385 130.309 185.191 129.702 184.816 129.292C184.441 128.876 183.926 128.668 183.27 128.668ZM194.669 137V124.15H196.77V137H194.669ZM208.503 137H206.429V131.023C206.429 130.273 206.276 129.714 205.972 129.345C205.673 128.976 205.195 128.791 204.539 128.791C203.666 128.791 203.027 129.049 202.623 129.564C202.219 130.08 202.017 130.944 202.017 132.157V137H199.951V127.279H201.568L201.858 128.554H201.964C202.257 128.091 202.673 127.733 203.212 127.481C203.751 127.229 204.349 127.104 205.005 127.104C207.337 127.104 208.503 128.29 208.503 130.663V137ZM213.592 137L209.9 127.279H212.08L214.058 132.931C214.397 133.88 214.603 134.647 214.673 135.233H214.743C214.796 134.812 215.001 134.044 215.358 132.931L217.336 127.279H219.533L215.824 137H213.592ZM225.255 137.176C223.743 137.176 222.56 136.736 221.704 135.857C220.854 134.973 220.43 133.757 220.43 132.21C220.43 130.622 220.825 129.374 221.616 128.466C222.407 127.558 223.494 127.104 224.877 127.104C226.16 127.104 227.174 127.493 227.918 128.272C228.662 129.052 229.034 130.124 229.034 131.489V132.605H222.557C222.586 133.549 222.841 134.275 223.321 134.785C223.802 135.289 224.479 135.541 225.352 135.541C225.926 135.541 226.459 135.488 226.951 135.383C227.449 135.271 227.982 135.09 228.551 134.838V136.517C228.047 136.757 227.537 136.927 227.021 137.026C226.506 137.126 225.917 137.176 225.255 137.176ZM224.877 128.668C224.221 128.668 223.693 128.876 223.295 129.292C222.902 129.708 222.668 130.314 222.592 131.111H227.004C226.992 130.309 226.799 129.702 226.424 129.292C226.049 128.876 225.533 128.668 224.877 128.668ZM236.312 127.104C236.728 127.104 237.07 127.133 237.34 127.191L237.138 129.116C236.845 129.046 236.54 129.011 236.224 129.011C235.397 129.011 234.727 129.28 234.211 129.819C233.701 130.358 233.446 131.059 233.446 131.92V137H231.381V127.279H232.998L233.271 128.993H233.376C233.698 128.413 234.117 127.953 234.633 127.613C235.154 127.273 235.714 127.104 236.312 127.104ZM247.702 137H245.628V131.023C245.628 130.273 245.476 129.714 245.171 129.345C244.872 128.976 244.395 128.791 243.738 128.791C242.865 128.791 242.227 129.049 241.822 129.564C241.418 130.08 241.216 130.944 241.216 132.157V137H239.15V127.279H240.768L241.058 128.554H241.163C241.456 128.091 241.872 127.733 242.411 127.481C242.95 127.229 243.548 127.104 244.204 127.104C246.536 127.104 247.702 128.29 247.702 130.663V137ZM259.198 132.122C259.198 133.71 258.791 134.949 257.977 135.84C257.162 136.73 256.028 137.176 254.575 137.176C253.667 137.176 252.864 136.971 252.167 136.561C251.47 136.15 250.934 135.562 250.559 134.794C250.184 134.026 249.996 133.136 249.996 132.122C249.996 130.546 250.4 129.315 251.209 128.431C252.018 127.546 253.157 127.104 254.628 127.104C256.034 127.104 257.147 127.558 257.968 128.466C258.788 129.368 259.198 130.587 259.198 132.122ZM252.123 132.122C252.123 134.366 252.952 135.488 254.61 135.488C256.251 135.488 257.071 134.366 257.071 132.122C257.071 129.901 256.245 128.791 254.593 128.791C253.726 128.791 253.096 129.078 252.703 129.652C252.316 130.227 252.123 131.05 252.123 132.122ZM265.412 133.054V131.296H269.93V133.054H265.412ZM279.035 137H276.952V124.15H284.203V125.926H279.035V129.942H283.878V131.727H279.035V137ZM288.378 137H286.312V127.279H288.378V137ZM286.189 124.704C286.189 124.335 286.289 124.051 286.488 123.852C286.693 123.652 286.983 123.553 287.358 123.553C287.722 123.553 288.003 123.652 288.202 123.852C288.407 124.051 288.51 124.335 288.51 124.704C288.51 125.056 288.407 125.334 288.202 125.539C288.003 125.738 287.722 125.838 287.358 125.838C286.983 125.838 286.693 125.738 286.488 125.539C286.289 125.334 286.189 125.056 286.189 124.704ZM299.892 137H297.817V131.023C297.817 130.273 297.665 129.714 297.36 129.345C297.062 128.976 296.584 128.791 295.928 128.791C295.055 128.791 294.416 129.049 294.012 129.564C293.607 130.08 293.405 130.944 293.405 132.157V137H291.34V127.279H292.957L293.247 128.554H293.353C293.646 128.091 294.062 127.733 294.601 127.481C295.14 127.229 295.737 127.104 296.394 127.104C298.726 127.104 299.892 128.29 299.892 130.663V137ZM304.831 137H302.766V123.324H304.831V137ZM313.875 137L313.462 135.646H313.392C312.923 136.238 312.451 136.643 311.977 136.859C311.502 137.07 310.893 137.176 310.148 137.176C309.193 137.176 308.446 136.918 307.907 136.402C307.374 135.887 307.107 135.157 307.107 134.214C307.107 133.212 307.479 132.456 308.224 131.946C308.968 131.437 310.102 131.158 311.625 131.111L313.304 131.059V130.54C313.304 129.919 313.157 129.456 312.864 129.151C312.577 128.841 312.129 128.686 311.52 128.686C311.021 128.686 310.544 128.759 310.087 128.905C309.63 129.052 309.19 129.225 308.769 129.424L308.101 127.947C308.628 127.672 309.205 127.464 309.832 127.323C310.459 127.177 311.051 127.104 311.607 127.104C312.844 127.104 313.775 127.373 314.402 127.912C315.035 128.451 315.352 129.298 315.352 130.452V137H313.875ZM310.799 135.594C311.549 135.594 312.149 135.386 312.601 134.97C313.058 134.548 313.286 133.959 313.286 133.203V132.359L312.038 132.412C311.065 132.447 310.356 132.611 309.911 132.904C309.472 133.191 309.252 133.634 309.252 134.231C309.252 134.665 309.381 135.002 309.639 135.242C309.896 135.477 310.283 135.594 310.799 135.594ZM313.471 126.093C312.75 125.665 312.082 125.138 311.467 124.511C310.863 125.114 310.204 125.642 309.489 126.093H308.101V125.873C309.22 124.713 309.964 123.825 310.333 123.21H312.618C312.987 123.854 313.737 124.742 314.868 125.873V126.093H313.471ZM326.786 137H324.712V131.023C324.712 130.273 324.56 129.714 324.255 129.345C323.956 128.976 323.479 128.791 322.822 128.791C321.949 128.791 321.311 129.049 320.906 129.564C320.502 130.08 320.3 130.944 320.3 132.157V137H318.234V127.279H319.852L320.142 128.554H320.247C320.54 128.091 320.956 127.733 321.495 127.481C322.034 127.229 322.632 127.104 323.288 127.104C325.62 127.104 326.786 128.29 326.786 130.663V137ZM332.938 137.176C331.726 137.176 330.779 136.736 330.1 135.857C329.42 134.979 329.08 133.745 329.08 132.157C329.08 130.563 329.423 129.324 330.108 128.439C330.8 127.549 331.755 127.104 332.974 127.104C334.251 127.104 335.224 127.575 335.892 128.519H335.997C335.897 127.821 335.848 127.271 335.848 126.866V123.324H337.922V137H336.305L335.944 135.726H335.848C335.186 136.692 334.216 137.176 332.938 137.176ZM333.492 135.506C334.342 135.506 334.96 135.269 335.347 134.794C335.733 134.313 335.933 133.537 335.944 132.465V132.175C335.944 130.95 335.745 130.08 335.347 129.564C334.948 129.049 334.324 128.791 333.475 128.791C332.748 128.791 332.188 129.087 331.796 129.679C331.403 130.265 331.207 131.103 331.207 132.192C331.207 133.271 331.397 134.094 331.778 134.662C332.159 135.225 332.73 135.506 333.492 135.506ZM342.94 137H340.875V127.279H342.94V137ZM340.752 124.704C340.752 124.335 340.852 124.051 341.051 123.852C341.256 123.652 341.546 123.553 341.921 123.553C342.284 123.553 342.565 123.652 342.765 123.852C342.97 124.051 343.072 124.335 343.072 124.704C343.072 125.056 342.97 125.334 342.765 125.539C342.565 125.738 342.284 125.838 341.921 125.838C341.546 125.838 341.256 125.738 341.051 125.539C340.852 125.334 340.752 125.056 340.752 124.704ZM351.984 137L351.571 135.646H351.501C351.032 136.238 350.561 136.643 350.086 136.859C349.611 137.07 349.002 137.176 348.258 137.176C347.303 137.176 346.556 136.918 346.017 136.402C345.483 135.887 345.217 135.157 345.217 134.214C345.217 133.212 345.589 132.456 346.333 131.946C347.077 131.437 348.211 131.158 349.734 131.111L351.413 131.059V130.54C351.413 129.919 351.267 129.456 350.974 129.151C350.687 128.841 350.238 128.686 349.629 128.686C349.131 128.686 348.653 128.759 348.196 128.905C347.739 129.052 347.3 129.225 346.878 129.424L346.21 127.947C346.737 127.672 347.314 127.464 347.941 127.323C348.568 127.177 349.16 127.104 349.717 127.104C350.953 127.104 351.885 127.373 352.512 127.912C353.145 128.451 353.461 129.298 353.461 130.452V137H351.984ZM348.908 135.594C349.658 135.594 350.259 135.386 350.71 134.97C351.167 134.548 351.396 133.959 351.396 133.203V132.359L350.147 132.412C349.175 132.447 348.466 132.611 348.021 132.904C347.581 133.191 347.361 133.634 347.361 134.231C347.361 134.665 347.49 135.002 347.748 135.242C348.006 135.477 348.393 135.594 348.908 135.594Z" fill="black"/>
<path d="M102.375 51.8906H103.672C104.542 51.8906 105.172 51.7292 105.562 51.4062C105.953 51.0833 106.148 50.6042 106.148 49.9688C106.148 49.3229 105.938 48.8594 105.516 48.5781C105.094 48.2969 104.458 48.1562 103.609 48.1562H102.375V51.8906ZM102.375 53.4375V58H100.508V46.5781H103.734C105.208 46.5781 106.299 46.8542 107.008 47.4062C107.716 47.9583 108.07 48.7917 108.07 49.9062C108.07 51.3281 107.331 52.3411 105.852 52.9453L109.078 58H106.953L104.219 53.4375H102.375ZM117.203 58H110.742V46.5781H117.203V48.1562H112.609V51.2656H116.914V52.8281H112.609V56.4141H117.203V58ZM124.539 48.0156C123.466 48.0156 122.622 48.3958 122.008 49.1562C121.393 49.9167 121.086 50.9661 121.086 52.3047C121.086 53.7057 121.38 54.7656 121.969 55.4844C122.562 56.2031 123.419 56.5625 124.539 56.5625C125.023 56.5625 125.492 56.5156 125.945 56.4219C126.398 56.3229 126.87 56.1979 127.359 56.0469V57.6484C126.464 57.987 125.448 58.1562 124.312 58.1562C122.641 58.1562 121.357 57.651 120.461 56.6406C119.565 55.625 119.117 54.1745 119.117 52.2891C119.117 51.1016 119.333 50.0625 119.766 49.1719C120.203 48.2812 120.833 47.599 121.656 47.125C122.479 46.651 123.445 46.4141 124.555 46.4141C125.721 46.4141 126.799 46.6589 127.789 47.1484L127.117 48.7031C126.732 48.5208 126.323 48.362 125.891 48.2266C125.464 48.0859 125.013 48.0156 124.539 48.0156Z" fill="#949494"/>
<path d="M102.375 161.891H103.672C104.542 161.891 105.172 161.729 105.562 161.406C105.953 161.083 106.148 160.604 106.148 159.969C106.148 159.323 105.938 158.859 105.516 158.578C105.094 158.297 104.458 158.156 103.609 158.156H102.375V161.891ZM102.375 163.438V168H100.508V156.578H103.734C105.208 156.578 106.299 156.854 107.008 157.406C107.716 157.958 108.07 158.792 108.07 159.906C108.07 161.328 107.331 162.341 105.852 162.945L109.078 168H106.953L104.219 163.438H102.375ZM117.203 168H110.742V156.578H117.203V158.156H112.609V161.266H116.914V162.828H112.609V166.414H117.203V168ZM124.539 158.016C123.466 158.016 122.622 158.396 122.008 159.156C121.393 159.917 121.086 160.966 121.086 162.305C121.086 163.706 121.38 164.766 121.969 165.484C122.562 166.203 123.419 166.562 124.539 166.562C125.023 166.562 125.492 166.516 125.945 166.422C126.398 166.323 126.87 166.198 127.359 166.047V167.648C126.464 167.987 125.448 168.156 124.312 168.156C122.641 168.156 121.357 167.651 120.461 166.641C119.565 165.625 119.117 164.174 119.117 162.289C119.117 161.102 119.333 160.062 119.766 159.172C120.203 158.281 120.833 157.599 121.656 157.125C122.479 156.651 123.445 156.414 124.555 156.414C125.721 156.414 126.799 156.659 127.789 157.148L127.117 158.703C126.732 158.521 126.323 158.362 125.891 158.227C125.464 158.086 125.013 158.016 124.539 158.016Z" fill="#949494"/>
<path d="M173.359 58H171.508V46.5781H177.953V48.1562H173.359V51.7266H177.664V53.3125H173.359V58ZM180.023 58V46.5781H181.891V58H180.023ZM194.43 58H192.141L186.523 48.8984H186.461L186.5 49.4062C186.573 50.375 186.609 51.2604 186.609 52.0625V58H184.914V46.5781H187.18L192.781 55.6328H192.828C192.818 55.513 192.797 55.0781 192.766 54.3281C192.734 53.5729 192.719 52.9844 192.719 52.5625V46.5781H194.43V58Z" fill="#949494"/>
<path d="M173.359 168H171.508V156.578H177.953V158.156H173.359V161.727H177.664V163.312H173.359V168ZM180.023 168V156.578H181.891V168H180.023ZM194.43 168H192.141L186.523 158.898H186.461L186.5 159.406C186.573 160.375 186.609 161.26 186.609 162.062V168H184.914V156.578H187.18L192.781 165.633H192.828C192.818 165.513 192.797 165.078 192.766 164.328C192.734 163.573 192.719 162.984 192.719 162.562V156.578H194.43V168Z" fill="#949494"/>
<path d="M230.39 58H223.615V56.7832L226.192 54.1924C226.953 53.4131 227.457 52.8617 227.703 52.5381C227.954 52.21 228.136 51.9023 228.25 51.6152C228.364 51.3281 228.421 51.0205 228.421 50.6924C228.421 50.2412 228.284 49.8857 228.011 49.626C227.742 49.3662 227.368 49.2363 226.89 49.2363C226.507 49.2363 226.135 49.307 225.775 49.4482C225.42 49.5895 225.007 49.8447 224.538 50.2139L223.67 49.1543C224.226 48.6849 224.766 48.3522 225.29 48.1562C225.814 47.9603 226.372 47.8623 226.965 47.8623C227.895 47.8623 228.64 48.1061 229.2 48.5938C229.761 49.0768 230.041 49.7285 230.041 50.5488C230.041 51 229.959 51.4284 229.795 51.834C229.635 52.2396 229.387 52.6589 229.05 53.0918C228.717 53.5202 228.161 54.1012 227.382 54.835L225.646 56.5166V56.585H230.39V58ZM238.012 50.3027C238.012 50.9362 237.827 51.4648 237.458 51.8887C237.089 52.3079 236.569 52.5905 235.899 52.7363V52.791C236.701 52.8913 237.303 53.1419 237.704 53.543C238.105 53.9395 238.306 54.4681 238.306 55.1289C238.306 56.0905 237.966 56.8333 237.287 57.3574C236.608 57.877 235.642 58.1367 234.389 58.1367C233.281 58.1367 232.347 57.9567 231.586 57.5967V56.168C232.01 56.3776 232.459 56.5394 232.933 56.6533C233.407 56.7673 233.862 56.8242 234.3 56.8242C235.075 56.8242 235.653 56.6807 236.036 56.3936C236.419 56.1064 236.61 55.6621 236.61 55.0605C236.61 54.5273 236.398 54.1354 235.975 53.8848C235.551 53.6341 234.885 53.5088 233.979 53.5088H233.11V52.2031H233.992C235.587 52.2031 236.385 51.6517 236.385 50.5488C236.385 50.1204 236.246 49.79 235.968 49.5576C235.69 49.3252 235.28 49.209 234.737 49.209C234.359 49.209 233.994 49.2637 233.644 49.373C233.293 49.4779 232.878 49.6852 232.399 49.9951L231.613 48.874C232.529 48.1995 233.593 47.8623 234.806 47.8623C235.813 47.8623 236.599 48.0788 237.164 48.5117C237.729 48.9447 238.012 49.5417 238.012 50.3027ZM246.331 58.1367C245.388 58.1367 244.652 57.7949 244.123 57.1113C243.594 56.4277 243.33 55.4684 243.33 54.2334C243.33 52.9938 243.597 52.0299 244.13 51.3418C244.668 50.6491 245.41 50.3027 246.358 50.3027C247.352 50.3027 248.108 50.6696 248.628 51.4033H248.71C248.632 50.861 248.594 50.4326 248.594 50.1182V47.3633H250.207V58H248.949L248.669 57.0088H248.594C248.079 57.7607 247.325 58.1367 246.331 58.1367ZM246.762 56.8379C247.423 56.8379 247.903 56.6533 248.204 56.2842C248.505 55.9105 248.66 55.3066 248.669 54.4727V54.2471C248.669 53.2946 248.514 52.6178 248.204 52.2168C247.894 51.8158 247.409 51.6152 246.748 51.6152C246.183 51.6152 245.748 51.8454 245.442 52.3057C245.137 52.7614 244.984 53.4131 244.984 54.2607C244.984 55.0993 245.132 55.7396 245.429 56.1816C245.725 56.6191 246.169 56.8379 246.762 56.8379ZM255.806 58.1367C254.63 58.1367 253.709 57.7949 253.044 57.1113C252.383 56.4232 252.053 55.4775 252.053 54.2744C252.053 53.0394 252.36 52.0687 252.976 51.3623C253.591 50.6559 254.436 50.3027 255.512 50.3027C256.51 50.3027 257.298 50.6058 257.877 51.2119C258.456 51.818 258.745 52.652 258.745 53.7139V54.582H253.707C253.73 55.3158 253.928 55.8809 254.302 56.2773C254.675 56.6693 255.202 56.8652 255.881 56.8652C256.327 56.8652 256.742 56.8242 257.125 56.7422C257.512 56.6556 257.927 56.5143 258.369 56.3184V57.624C257.977 57.8109 257.581 57.943 257.18 58.0205C256.779 58.098 256.321 58.1367 255.806 58.1367ZM255.512 51.5195C255.001 51.5195 254.591 51.6813 254.281 52.0049C253.976 52.3285 253.794 52.8001 253.734 53.4199H257.166C257.157 52.7956 257.007 52.3239 256.715 52.0049C256.423 51.6813 256.022 51.5195 255.512 51.5195ZM270.578 58H268.965V53.3379C268.965 52.7591 268.855 52.3285 268.637 52.0459C268.418 51.7588 268.076 51.6152 267.611 51.6152C266.992 51.6152 266.536 51.818 266.244 52.2236C265.957 52.6247 265.813 53.2946 265.813 54.2334V58H264.207V50.4395H265.465L265.69 51.4307H265.772C265.982 51.0706 266.285 50.7926 266.682 50.5967C267.083 50.4007 267.522 50.3027 268.001 50.3027C269.163 50.3027 269.933 50.6992 270.312 51.4922H270.421C270.644 51.1185 270.959 50.8268 271.364 50.6172C271.77 50.4076 272.235 50.3027 272.759 50.3027C273.661 50.3027 274.317 50.5306 274.728 50.9863C275.142 51.4421 275.35 52.137 275.35 53.0713V58H273.743V53.3379C273.743 52.7591 273.632 52.3285 273.408 52.0459C273.189 51.7588 272.848 51.6152 272.383 51.6152C271.758 51.6152 271.3 51.8112 271.009 52.2031C270.722 52.5905 270.578 53.1875 270.578 53.9941V58ZM282.322 58L282.001 56.9473H281.946C281.582 57.4076 281.215 57.722 280.846 57.8906C280.477 58.0547 280.003 58.1367 279.424 58.1367C278.681 58.1367 278.1 57.9362 277.681 57.5352C277.266 57.1341 277.059 56.5667 277.059 55.833C277.059 55.0537 277.348 54.4658 277.927 54.0693C278.506 53.6729 279.387 53.4564 280.572 53.4199L281.878 53.3789V52.9756C281.878 52.4925 281.764 52.1325 281.536 51.8955C281.313 51.654 280.964 51.5332 280.49 51.5332C280.103 51.5332 279.731 51.5902 279.376 51.7041C279.021 51.818 278.679 51.9525 278.351 52.1074L277.831 50.959C278.241 50.7448 278.69 50.583 279.178 50.4736C279.665 50.3597 280.126 50.3027 280.559 50.3027C281.52 50.3027 282.245 50.5124 282.732 50.9316C283.225 51.3509 283.471 52.0094 283.471 52.9072V58H282.322ZM279.93 56.9062C280.513 56.9062 280.98 56.7445 281.331 56.4209C281.687 56.0928 281.864 55.6348 281.864 55.0469V54.3906L280.894 54.4316C280.137 54.459 279.586 54.5866 279.239 54.8145C278.897 55.0378 278.727 55.3818 278.727 55.8467C278.727 56.1839 278.827 56.446 279.027 56.6328C279.228 56.8151 279.529 56.9062 279.93 56.9062ZM289.548 50.3027C289.871 50.3027 290.138 50.3255 290.348 50.3711L290.19 51.8682C289.963 51.8135 289.726 51.7861 289.479 51.7861C288.837 51.7861 288.315 51.9958 287.914 52.415C287.518 52.8343 287.319 53.3789 287.319 54.0488V58H285.713V50.4395H286.971L287.183 51.7725H287.265C287.515 51.3213 287.841 50.9635 288.242 50.6992C288.648 50.4349 289.083 50.3027 289.548 50.3027ZM294.805 58.1367C293.661 58.1367 292.79 57.804 292.193 57.1387C291.601 56.4688 291.305 55.5094 291.305 54.2607C291.305 52.9893 291.615 52.0117 292.234 51.3281C292.859 50.6445 293.759 50.3027 294.935 50.3027C295.732 50.3027 296.45 50.4508 297.088 50.7471L296.603 52.0391C295.924 51.7747 295.363 51.6426 294.921 51.6426C293.613 51.6426 292.959 52.5107 292.959 54.2471C292.959 55.0947 293.121 55.7327 293.444 56.1611C293.772 56.585 294.251 56.7969 294.88 56.7969C295.595 56.7969 296.272 56.6191 296.91 56.2637V57.665C296.623 57.8337 296.315 57.9544 295.987 58.0273C295.664 58.1003 295.27 58.1367 294.805 58.1367ZM295.953 59.8457C295.953 60.8574 295.258 61.3633 293.868 61.3633C293.567 61.3633 293.292 61.3291 293.041 61.2607V60.3242C293.287 60.388 293.567 60.4199 293.882 60.4199C294.128 60.4199 294.322 60.3812 294.463 60.3037C294.609 60.2308 294.682 60.0918 294.682 59.8867C294.682 59.4993 294.274 59.2487 293.458 59.1348L294.032 58H295.071L294.791 58.6016C295.156 58.6973 295.44 58.8522 295.646 59.0664C295.851 59.2852 295.953 59.5449 295.953 59.8457ZM305.394 54.2061C305.394 55.4411 305.077 56.4049 304.443 57.0977C303.81 57.7904 302.928 58.1367 301.798 58.1367C301.091 58.1367 300.467 57.9772 299.925 57.6582C299.382 57.3392 298.965 56.8812 298.674 56.2842C298.382 55.6872 298.236 54.9945 298.236 54.2061C298.236 52.9801 298.551 52.0231 299.18 51.335C299.809 50.6468 300.695 50.3027 301.839 50.3027C302.933 50.3027 303.799 50.6559 304.437 51.3623C305.075 52.0641 305.394 53.012 305.394 54.2061ZM299.891 54.2061C299.891 55.9515 300.535 56.8242 301.825 56.8242C303.101 56.8242 303.739 55.9515 303.739 54.2061C303.739 52.4788 303.097 51.6152 301.812 51.6152C301.137 51.6152 300.647 51.8385 300.342 52.2852C300.041 52.7318 299.891 53.3721 299.891 54.2061ZM310.227 54.9307V53.5635H313.74V54.9307H310.227ZM325.272 58H318.498V56.7832L321.075 54.1924C321.836 53.4131 322.34 52.8617 322.586 52.5381C322.837 52.21 323.019 51.9023 323.133 51.6152C323.247 51.3281 323.304 51.0205 323.304 50.6924C323.304 50.2412 323.167 49.8857 322.894 49.626C322.625 49.3662 322.251 49.2363 321.772 49.2363C321.39 49.2363 321.018 49.307 320.658 49.4482C320.303 49.5895 319.89 49.8447 319.421 50.2139L318.553 49.1543C319.109 48.6849 319.649 48.3522 320.173 48.1562C320.697 47.9603 321.255 47.8623 321.848 47.8623C322.777 47.8623 323.522 48.1061 324.083 48.5938C324.644 49.0768 324.924 49.7285 324.924 50.5488C324.924 51 324.842 51.4284 324.678 51.834C324.518 52.2396 324.27 52.6589 323.933 53.0918C323.6 53.5202 323.044 54.1012 322.265 54.835L320.528 56.5166V56.585H325.272V58ZM327.631 58L331.582 49.4346H326.387V48.0195H333.298V49.1406L329.367 58H327.631ZM341.214 58.1367C340.271 58.1367 339.535 57.7949 339.006 57.1113C338.477 56.4277 338.213 55.4684 338.213 54.2334C338.213 52.9938 338.479 52.0299 339.013 51.3418C339.55 50.6491 340.293 50.3027 341.241 50.3027C342.235 50.3027 342.991 50.6696 343.511 51.4033H343.593C343.515 50.861 343.477 50.4326 343.477 50.1182V47.3633H345.09V58H343.832L343.552 57.0088H343.477C342.962 57.7607 342.207 58.1367 341.214 58.1367ZM341.645 56.8379C342.305 56.8379 342.786 56.6533 343.087 56.2842C343.388 55.9105 343.543 55.3066 343.552 54.4727V54.2471C343.552 53.2946 343.397 52.6178 343.087 52.2168C342.777 51.8158 342.292 51.6152 341.631 51.6152C341.066 51.6152 340.631 51.8454 340.325 52.3057C340.02 52.7614 339.867 53.4131 339.867 54.2607C339.867 55.0993 340.015 55.7396 340.312 56.1816C340.608 56.6191 341.052 56.8379 341.645 56.8379ZM350.688 58.1367C349.513 58.1367 348.592 57.7949 347.927 57.1113C347.266 56.4232 346.936 55.4775 346.936 54.2744C346.936 53.0394 347.243 52.0687 347.858 51.3623C348.474 50.6559 349.319 50.3027 350.395 50.3027C351.393 50.3027 352.181 50.6058 352.76 51.2119C353.339 51.818 353.628 52.652 353.628 53.7139V54.582H348.59C348.613 55.3158 348.811 55.8809 349.185 56.2773C349.558 56.6693 350.085 56.8652 350.764 56.8652C351.21 56.8652 351.625 56.8242 352.008 56.7422C352.395 56.6556 352.81 56.5143 353.252 56.3184V57.624C352.86 57.8109 352.464 57.943 352.062 58.0205C351.661 58.098 351.203 58.1367 350.688 58.1367ZM350.395 51.5195C349.884 51.5195 349.474 51.6813 349.164 52.0049C348.859 52.3285 348.676 52.8001 348.617 53.4199H352.049C352.04 52.7956 351.889 52.3239 351.598 52.0049C351.306 51.6813 350.905 51.5195 350.395 51.5195ZM365.461 58H363.848V53.3379C363.848 52.7591 363.738 52.3285 363.52 52.0459C363.301 51.7588 362.959 51.6152 362.494 51.6152C361.874 51.6152 361.419 51.818 361.127 52.2236C360.84 52.6247 360.696 53.2946 360.696 54.2334V58H359.09V50.4395H360.348L360.573 51.4307H360.655C360.865 51.0706 361.168 50.7926 361.564 50.5967C361.965 50.4007 362.405 50.3027 362.884 50.3027C364.046 50.3027 364.816 50.6992 365.194 51.4922H365.304C365.527 51.1185 365.841 50.8268 366.247 50.6172C366.653 50.4076 367.118 50.3027 367.642 50.3027C368.544 50.3027 369.2 50.5306 369.61 50.9863C370.025 51.4421 370.232 52.137 370.232 53.0713V58H368.626V53.3379C368.626 52.7591 368.514 52.3285 368.291 52.0459C368.072 51.7588 367.73 51.6152 367.266 51.6152C366.641 51.6152 366.183 51.8112 365.892 52.2031C365.604 52.5905 365.461 53.1875 365.461 53.9941V58ZM377.205 58L376.884 56.9473H376.829C376.465 57.4076 376.098 57.722 375.729 57.8906C375.359 58.0547 374.885 58.1367 374.307 58.1367C373.564 58.1367 372.983 57.9362 372.563 57.5352C372.149 57.1341 371.941 56.5667 371.941 55.833C371.941 55.0537 372.231 54.4658 372.81 54.0693C373.388 53.6729 374.27 53.4564 375.455 53.4199L376.761 53.3789V52.9756C376.761 52.4925 376.647 52.1325 376.419 51.8955C376.196 51.654 375.847 51.5332 375.373 51.5332C374.986 51.5332 374.614 51.5902 374.259 51.7041C373.903 51.818 373.562 51.9525 373.233 52.1074L372.714 50.959C373.124 50.7448 373.573 50.583 374.061 50.4736C374.548 50.3597 375.008 50.3027 375.441 50.3027C376.403 50.3027 377.128 50.5124 377.615 50.9316C378.107 51.3509 378.354 52.0094 378.354 52.9072V58H377.205ZM374.812 56.9062C375.396 56.9062 375.863 56.7445 376.214 56.4209C376.569 56.0928 376.747 55.6348 376.747 55.0469V54.3906L375.776 54.4316C375.02 54.459 374.468 54.5866 374.122 54.8145C373.78 55.0378 373.609 55.3818 373.609 55.8467C373.609 56.1839 373.71 56.446 373.91 56.6328C374.111 56.8151 374.411 56.9062 374.812 56.9062ZM384.431 50.3027C384.754 50.3027 385.021 50.3255 385.23 50.3711L385.073 51.8682C384.845 51.8135 384.608 51.7861 384.362 51.7861C383.72 51.7861 383.198 51.9958 382.797 52.415C382.4 52.8343 382.202 53.3789 382.202 54.0488V58H380.596V50.4395H381.854L382.065 51.7725H382.147C382.398 51.3213 382.724 50.9635 383.125 50.6992C383.531 50.4349 383.966 50.3027 384.431 50.3027ZM389.688 58.1367C388.544 58.1367 387.673 57.804 387.076 57.1387C386.484 56.4688 386.188 55.5094 386.188 54.2607C386.188 52.9893 386.497 52.0117 387.117 51.3281C387.742 50.6445 388.642 50.3027 389.817 50.3027C390.615 50.3027 391.333 50.4508 391.971 50.7471L391.485 52.0391C390.806 51.7747 390.246 51.6426 389.804 51.6426C388.496 51.6426 387.842 52.5107 387.842 54.2471C387.842 55.0947 388.004 55.7327 388.327 56.1611C388.655 56.585 389.134 56.7969 389.763 56.7969C390.478 56.7969 391.155 56.6191 391.793 56.2637V57.665C391.506 57.8337 391.198 57.9544 390.87 58.0273C390.547 58.1003 390.152 58.1367 389.688 58.1367ZM390.836 59.8457C390.836 60.8574 390.141 61.3633 388.751 61.3633C388.45 61.3633 388.174 61.3291 387.924 61.2607V60.3242C388.17 60.388 388.45 60.4199 388.765 60.4199C389.011 60.4199 389.204 60.3812 389.346 60.3037C389.492 60.2308 389.564 60.0918 389.564 59.8867C389.564 59.4993 389.157 59.2487 388.341 59.1348L388.915 58H389.954L389.674 58.6016C390.038 58.6973 390.323 58.8522 390.528 59.0664C390.733 59.2852 390.836 59.5449 390.836 59.8457ZM400.276 54.2061C400.276 55.4411 399.96 56.4049 399.326 57.0977C398.693 57.7904 397.811 58.1367 396.681 58.1367C395.974 58.1367 395.35 57.9772 394.808 57.6582C394.265 57.3392 393.848 56.8812 393.557 56.2842C393.265 55.6872 393.119 54.9945 393.119 54.2061C393.119 52.9801 393.434 52.0231 394.062 51.335C394.691 50.6468 395.578 50.3027 396.722 50.3027C397.815 50.3027 398.681 50.6559 399.319 51.3623C399.957 52.0641 400.276 53.012 400.276 54.2061ZM394.773 54.2061C394.773 55.9515 395.418 56.8242 396.708 56.8242C397.984 56.8242 398.622 55.9515 398.622 54.2061C398.622 52.4788 397.979 51.6152 396.694 51.6152C396.02 51.6152 395.53 51.8385 395.225 52.2852C394.924 52.7318 394.773 53.3721 394.773 54.2061ZM415.644 58H408.869V56.7832L411.446 54.1924C412.207 53.4131 412.711 52.8617 412.957 52.5381C413.208 52.21 413.39 51.9023 413.504 51.6152C413.618 51.3281 413.675 51.0205 413.675 50.6924C413.675 50.2412 413.538 49.8857 413.265 49.626C412.996 49.3662 412.622 49.2363 412.144 49.2363C411.761 49.2363 411.389 49.307 411.029 49.4482C410.674 49.5895 410.261 49.8447 409.792 50.2139L408.924 49.1543C409.48 48.6849 410.02 48.3522 410.544 48.1562C411.068 47.9603 411.626 47.8623 412.219 47.8623C413.148 47.8623 413.894 48.1061 414.454 48.5938C415.015 49.0768 415.295 49.7285 415.295 50.5488C415.295 51 415.213 51.4284 415.049 51.834C414.889 52.2396 414.641 52.6589 414.304 53.0918C413.971 53.5202 413.415 54.1012 412.636 54.835L410.899 56.5166V56.585H415.644V58ZM423.642 53.0029C423.642 54.7393 423.361 56.029 422.801 56.8721C422.245 57.7152 421.393 58.1367 420.244 58.1367C419.132 58.1367 418.289 57.7015 417.715 56.8311C417.141 55.9606 416.854 54.6846 416.854 53.0029C416.854 51.2393 417.132 49.9404 417.688 49.1064C418.248 48.2679 419.1 47.8486 420.244 47.8486C421.361 47.8486 422.206 48.2861 422.78 49.1611C423.354 50.0361 423.642 51.3167 423.642 53.0029ZM418.48 53.0029C418.48 54.3656 418.619 55.3385 418.897 55.9219C419.18 56.5052 419.629 56.7969 420.244 56.7969C420.859 56.7969 421.308 56.5007 421.591 55.9082C421.878 55.3158 422.021 54.3473 422.021 53.0029C422.021 51.6631 421.878 50.6947 421.591 50.0977C421.308 49.4961 420.859 49.1953 420.244 49.1953C419.629 49.1953 419.18 49.4893 418.897 50.0771C418.619 50.665 418.48 51.6403 418.48 53.0029ZM431.64 58H424.865V56.7832L427.442 54.1924C428.203 53.4131 428.707 52.8617 428.953 52.5381C429.204 52.21 429.386 51.9023 429.5 51.6152C429.614 51.3281 429.671 51.0205 429.671 50.6924C429.671 50.2412 429.534 49.8857 429.261 49.626C428.992 49.3662 428.618 49.2363 428.14 49.2363C427.757 49.2363 427.385 49.307 427.025 49.4482C426.67 49.5895 426.257 49.8447 425.788 50.2139L424.92 49.1543C425.476 48.6849 426.016 48.3522 426.54 48.1562C427.064 47.9603 427.622 47.8623 428.215 47.8623C429.145 47.8623 429.89 48.1061 430.45 48.5938C431.011 49.0768 431.291 49.7285 431.291 50.5488C431.291 51 431.209 51.4284 431.045 51.834C430.885 52.2396 430.637 52.6589 430.3 53.0918C429.967 53.5202 429.411 54.1012 428.632 54.835L426.896 56.5166V56.585H431.64V58ZM437.58 58H435.974V51.5469C435.974 50.7767 435.992 50.166 436.028 49.7148C435.924 49.8242 435.794 49.945 435.639 50.0771C435.488 50.2093 434.978 50.6286 434.107 51.335L433.301 50.3164L436.24 48.0059H437.58V58Z" fill="#949494"/>
<path d="M230.39 168H223.615V166.783L226.192 164.192C226.953 163.413 227.457 162.862 227.703 162.538C227.954 162.21 228.136 161.902 228.25 161.615C228.364 161.328 228.421 161.021 228.421 160.692C228.421 160.241 228.284 159.886 228.011 159.626C227.742 159.366 227.368 159.236 226.89 159.236C226.507 159.236 226.135 159.307 225.775 159.448C225.42 159.59 225.007 159.845 224.538 160.214L223.67 159.154C224.226 158.685 224.766 158.352 225.29 158.156C225.814 157.96 226.372 157.862 226.965 157.862C227.895 157.862 228.64 158.106 229.2 158.594C229.761 159.077 230.041 159.729 230.041 160.549C230.041 161 229.959 161.428 229.795 161.834C229.635 162.24 229.387 162.659 229.05 163.092C228.717 163.52 228.161 164.101 227.382 164.835L225.646 166.517V166.585H230.39V168ZM238.012 160.303C238.012 160.936 237.827 161.465 237.458 161.889C237.089 162.308 236.569 162.59 235.899 162.736V162.791C236.701 162.891 237.303 163.142 237.704 163.543C238.105 163.939 238.306 164.468 238.306 165.129C238.306 166.09 237.966 166.833 237.287 167.357C236.608 167.877 235.642 168.137 234.389 168.137C233.281 168.137 232.347 167.957 231.586 167.597V166.168C232.01 166.378 232.459 166.539 232.933 166.653C233.407 166.767 233.862 166.824 234.3 166.824C235.075 166.824 235.653 166.681 236.036 166.394C236.419 166.106 236.61 165.662 236.61 165.061C236.61 164.527 236.398 164.135 235.975 163.885C235.551 163.634 234.885 163.509 233.979 163.509H233.11V162.203H233.992C235.587 162.203 236.385 161.652 236.385 160.549C236.385 160.12 236.246 159.79 235.968 159.558C235.69 159.325 235.28 159.209 234.737 159.209C234.359 159.209 233.994 159.264 233.644 159.373C233.293 159.478 232.878 159.685 232.399 159.995L231.613 158.874C232.529 158.2 233.593 157.862 234.806 157.862C235.813 157.862 236.599 158.079 237.164 158.512C237.729 158.945 238.012 159.542 238.012 160.303ZM246.331 168.137C245.388 168.137 244.652 167.795 244.123 167.111C243.594 166.428 243.33 165.468 243.33 164.233C243.33 162.994 243.597 162.03 244.13 161.342C244.668 160.649 245.41 160.303 246.358 160.303C247.352 160.303 248.108 160.67 248.628 161.403H248.71C248.632 160.861 248.594 160.433 248.594 160.118V157.363H250.207V168H248.949L248.669 167.009H248.594C248.079 167.761 247.325 168.137 246.331 168.137ZM246.762 166.838C247.423 166.838 247.903 166.653 248.204 166.284C248.505 165.91 248.66 165.307 248.669 164.473V164.247C248.669 163.295 248.514 162.618 248.204 162.217C247.894 161.816 247.409 161.615 246.748 161.615C246.183 161.615 245.748 161.845 245.442 162.306C245.137 162.761 244.984 163.413 244.984 164.261C244.984 165.099 245.132 165.74 245.429 166.182C245.725 166.619 246.169 166.838 246.762 166.838ZM255.806 168.137C254.63 168.137 253.709 167.795 253.044 167.111C252.383 166.423 252.053 165.478 252.053 164.274C252.053 163.039 252.36 162.069 252.976 161.362C253.591 160.656 254.436 160.303 255.512 160.303C256.51 160.303 257.298 160.606 257.877 161.212C258.456 161.818 258.745 162.652 258.745 163.714V164.582H253.707C253.73 165.316 253.928 165.881 254.302 166.277C254.675 166.669 255.202 166.865 255.881 166.865C256.327 166.865 256.742 166.824 257.125 166.742C257.512 166.656 257.927 166.514 258.369 166.318V167.624C257.977 167.811 257.581 167.943 257.18 168.021C256.779 168.098 256.321 168.137 255.806 168.137ZM255.512 161.52C255.001 161.52 254.591 161.681 254.281 162.005C253.976 162.328 253.794 162.8 253.734 163.42H257.166C257.157 162.796 257.007 162.324 256.715 162.005C256.423 161.681 256.022 161.52 255.512 161.52ZM270.578 168H268.965V163.338C268.965 162.759 268.855 162.328 268.637 162.046C268.418 161.759 268.076 161.615 267.611 161.615C266.992 161.615 266.536 161.818 266.244 162.224C265.957 162.625 265.813 163.295 265.813 164.233V168H264.207V160.439H265.465L265.69 161.431H265.772C265.982 161.071 266.285 160.793 266.682 160.597C267.083 160.401 267.522 160.303 268.001 160.303C269.163 160.303 269.933 160.699 270.312 161.492H270.421C270.644 161.118 270.959 160.827 271.364 160.617C271.77 160.408 272.235 160.303 272.759 160.303C273.661 160.303 274.317 160.531 274.728 160.986C275.142 161.442 275.35 162.137 275.35 163.071V168H273.743V163.338C273.743 162.759 273.632 162.328 273.408 162.046C273.189 161.759 272.848 161.615 272.383 161.615C271.758 161.615 271.3 161.811 271.009 162.203C270.722 162.59 270.578 163.188 270.578 163.994V168ZM282.322 168L282.001 166.947H281.946C281.582 167.408 281.215 167.722 280.846 167.891C280.477 168.055 280.003 168.137 279.424 168.137C278.681 168.137 278.1 167.936 277.681 167.535C277.266 167.134 277.059 166.567 277.059 165.833C277.059 165.054 277.348 164.466 277.927 164.069C278.506 163.673 279.387 163.456 280.572 163.42L281.878 163.379V162.976C281.878 162.493 281.764 162.132 281.536 161.896C281.313 161.654 280.964 161.533 280.49 161.533C280.103 161.533 279.731 161.59 279.376 161.704C279.021 161.818 278.679 161.952 278.351 162.107L277.831 160.959C278.241 160.745 278.69 160.583 279.178 160.474C279.665 160.36 280.126 160.303 280.559 160.303C281.52 160.303 282.245 160.512 282.732 160.932C283.225 161.351 283.471 162.009 283.471 162.907V168H282.322ZM279.93 166.906C280.513 166.906 280.98 166.744 281.331 166.421C281.687 166.093 281.864 165.635 281.864 165.047V164.391L280.894 164.432C280.137 164.459 279.586 164.587 279.239 164.814C278.897 165.038 278.727 165.382 278.727 165.847C278.727 166.184 278.827 166.446 279.027 166.633C279.228 166.815 279.529 166.906 279.93 166.906ZM289.548 160.303C289.871 160.303 290.138 160.326 290.348 160.371L290.19 161.868C289.963 161.813 289.726 161.786 289.479 161.786C288.837 161.786 288.315 161.996 287.914 162.415C287.518 162.834 287.319 163.379 287.319 164.049V168H285.713V160.439H286.971L287.183 161.772H287.265C287.515 161.321 287.841 160.964 288.242 160.699C288.648 160.435 289.083 160.303 289.548 160.303ZM294.805 168.137C293.661 168.137 292.79 167.804 292.193 167.139C291.601 166.469 291.305 165.509 291.305 164.261C291.305 162.989 291.615 162.012 292.234 161.328C292.859 160.645 293.759 160.303 294.935 160.303C295.732 160.303 296.45 160.451 297.088 160.747L296.603 162.039C295.924 161.775 295.363 161.643 294.921 161.643C293.613 161.643 292.959 162.511 292.959 164.247C292.959 165.095 293.121 165.733 293.444 166.161C293.772 166.585 294.251 166.797 294.88 166.797C295.595 166.797 296.272 166.619 296.91 166.264V167.665C296.623 167.834 296.315 167.954 295.987 168.027C295.664 168.1 295.27 168.137 294.805 168.137ZM295.953 169.846C295.953 170.857 295.258 171.363 293.868 171.363C293.567 171.363 293.292 171.329 293.041 171.261V170.324C293.287 170.388 293.567 170.42 293.882 170.42C294.128 170.42 294.322 170.381 294.463 170.304C294.609 170.231 294.682 170.092 294.682 169.887C294.682 169.499 294.274 169.249 293.458 169.135L294.032 168H295.071L294.791 168.602C295.156 168.697 295.44 168.852 295.646 169.066C295.851 169.285 295.953 169.545 295.953 169.846ZM305.394 164.206C305.394 165.441 305.077 166.405 304.443 167.098C303.81 167.79 302.928 168.137 301.798 168.137C301.091 168.137 300.467 167.977 299.925 167.658C299.382 167.339 298.965 166.881 298.674 166.284C298.382 165.687 298.236 164.994 298.236 164.206C298.236 162.98 298.551 162.023 299.18 161.335C299.809 160.647 300.695 160.303 301.839 160.303C302.933 160.303 303.799 160.656 304.437 161.362C305.075 162.064 305.394 163.012 305.394 164.206ZM299.891 164.206C299.891 165.951 300.535 166.824 301.825 166.824C303.101 166.824 303.739 165.951 303.739 164.206C303.739 162.479 303.097 161.615 301.812 161.615C301.137 161.615 300.647 161.839 300.342 162.285C300.041 162.732 299.891 163.372 299.891 164.206ZM310.227 164.931V163.563H313.74V164.931H310.227ZM325.272 168H318.498V166.783L321.075 164.192C321.836 163.413 322.34 162.862 322.586 162.538C322.837 162.21 323.019 161.902 323.133 161.615C323.247 161.328 323.304 161.021 323.304 160.692C323.304 160.241 323.167 159.886 322.894 159.626C322.625 159.366 322.251 159.236 321.772 159.236C321.39 159.236 321.018 159.307 320.658 159.448C320.303 159.59 319.89 159.845 319.421 160.214L318.553 159.154C319.109 158.685 319.649 158.352 320.173 158.156C320.697 157.96 321.255 157.862 321.848 157.862C322.777 157.862 323.522 158.106 324.083 158.594C324.644 159.077 324.924 159.729 324.924 160.549C324.924 161 324.842 161.428 324.678 161.834C324.518 162.24 324.27 162.659 323.933 163.092C323.6 163.52 323.044 164.101 322.265 164.835L320.528 166.517V166.585H325.272V168ZM327.631 168L331.582 159.435H326.387V158.02H333.298V159.141L329.367 168H327.631ZM341.214 168.137C340.271 168.137 339.535 167.795 339.006 167.111C338.477 166.428 338.213 165.468 338.213 164.233C338.213 162.994 338.479 162.03 339.013 161.342C339.55 160.649 340.293 160.303 341.241 160.303C342.235 160.303 342.991 160.67 343.511 161.403H343.593C343.515 160.861 343.477 160.433 343.477 160.118V157.363H345.09V168H343.832L343.552 167.009H343.477C342.962 167.761 342.207 168.137 341.214 168.137ZM341.645 166.838C342.305 166.838 342.786 166.653 343.087 166.284C343.388 165.91 343.543 165.307 343.552 164.473V164.247C343.552 163.295 343.397 162.618 343.087 162.217C342.777 161.816 342.292 161.615 341.631 161.615C341.066 161.615 340.631 161.845 340.325 162.306C340.02 162.761 339.867 163.413 339.867 164.261C339.867 165.099 340.015 165.74 340.312 166.182C340.608 166.619 341.052 166.838 341.645 166.838ZM350.688 168.137C349.513 168.137 348.592 167.795 347.927 167.111C347.266 166.423 346.936 165.478 346.936 164.274C346.936 163.039 347.243 162.069 347.858 161.362C348.474 160.656 349.319 160.303 350.395 160.303C351.393 160.303 352.181 160.606 352.76 161.212C353.339 161.818 353.628 162.652 353.628 163.714V164.582H348.59C348.613 165.316 348.811 165.881 349.185 166.277C349.558 166.669 350.085 166.865 350.764 166.865C351.21 166.865 351.625 166.824 352.008 166.742C352.395 166.656 352.81 166.514 353.252 166.318V167.624C352.86 167.811 352.464 167.943 352.062 168.021C351.661 168.098 351.203 168.137 350.688 168.137ZM350.395 161.52C349.884 161.52 349.474 161.681 349.164 162.005C348.859 162.328 348.676 162.8 348.617 163.42H352.049C352.04 162.796 351.889 162.324 351.598 162.005C351.306 161.681 350.905 161.52 350.395 161.52ZM365.461 168H363.848V163.338C363.848 162.759 363.738 162.328 363.52 162.046C363.301 161.759 362.959 161.615 362.494 161.615C361.874 161.615 361.419 161.818 361.127 162.224C360.84 162.625 360.696 163.295 360.696 164.233V168H359.09V160.439H360.348L360.573 161.431H360.655C360.865 161.071 361.168 160.793 361.564 160.597C361.965 160.401 362.405 160.303 362.884 160.303C364.046 160.303 364.816 160.699 365.194 161.492H365.304C365.527 161.118 365.841 160.827 366.247 160.617C366.653 160.408 367.118 160.303 367.642 160.303C368.544 160.303 369.2 160.531 369.61 160.986C370.025 161.442 370.232 162.137 370.232 163.071V168H368.626V163.338C368.626 162.759 368.514 162.328 368.291 162.046C368.072 161.759 367.73 161.615 367.266 161.615C366.641 161.615 366.183 161.811 365.892 162.203C365.604 162.59 365.461 163.188 365.461 163.994V168ZM377.205 168L376.884 166.947H376.829C376.465 167.408 376.098 167.722 375.729 167.891C375.359 168.055 374.885 168.137 374.307 168.137C373.564 168.137 372.983 167.936 372.563 167.535C372.149 167.134 371.941 166.567 371.941 165.833C371.941 165.054 372.231 164.466 372.81 164.069C373.388 163.673 374.27 163.456 375.455 163.42L376.761 163.379V162.976C376.761 162.493 376.647 162.132 376.419 161.896C376.196 161.654 375.847 161.533 375.373 161.533C374.986 161.533 374.614 161.59 374.259 161.704C373.903 161.818 373.562 161.952 373.233 162.107L372.714 160.959C373.124 160.745 373.573 160.583 374.061 160.474C374.548 160.36 375.008 160.303 375.441 160.303C376.403 160.303 377.128 160.512 377.615 160.932C378.107 161.351 378.354 162.009 378.354 162.907V168H377.205ZM374.812 166.906C375.396 166.906 375.863 166.744 376.214 166.421C376.569 166.093 376.747 165.635 376.747 165.047V164.391L375.776 164.432C375.02 164.459 374.468 164.587 374.122 164.814C373.78 165.038 373.609 165.382 373.609 165.847C373.609 166.184 373.71 166.446 373.91 166.633C374.111 166.815 374.411 166.906 374.812 166.906ZM384.431 160.303C384.754 160.303 385.021 160.326 385.23 160.371L385.073 161.868C384.845 161.813 384.608 161.786 384.362 161.786C383.72 161.786 383.198 161.996 382.797 162.415C382.4 162.834 382.202 163.379 382.202 164.049V168H380.596V160.439H381.854L382.065 161.772H382.147C382.398 161.321 382.724 160.964 383.125 160.699C383.531 160.435 383.966 160.303 384.431 160.303ZM389.688 168.137C388.544 168.137 387.673 167.804 387.076 167.139C386.484 166.469 386.188 165.509 386.188 164.261C386.188 162.989 386.497 162.012 387.117 161.328C387.742 160.645 388.642 160.303 389.817 160.303C390.615 160.303 391.333 160.451 391.971 160.747L391.485 162.039C390.806 161.775 390.246 161.643 389.804 161.643C388.496 161.643 387.842 162.511 387.842 164.247C387.842 165.095 388.004 165.733 388.327 166.161C388.655 166.585 389.134 166.797 389.763 166.797C390.478 166.797 391.155 166.619 391.793 166.264V167.665C391.506 167.834 391.198 167.954 390.87 168.027C390.547 168.1 390.152 168.137 389.688 168.137ZM390.836 169.846C390.836 170.857 390.141 171.363 388.751 171.363C388.45 171.363 388.174 171.329 387.924 171.261V170.324C388.17 170.388 388.45 170.42 388.765 170.42C389.011 170.42 389.204 170.381 389.346 170.304C389.492 170.231 389.564 170.092 389.564 169.887C389.564 169.499 389.157 169.249 388.341 169.135L388.915 168H389.954L389.674 168.602C390.038 168.697 390.323 168.852 390.528 169.066C390.733 169.285 390.836 169.545 390.836 169.846ZM400.276 164.206C400.276 165.441 399.96 166.405 399.326 167.098C398.693 167.79 397.811 168.137 396.681 168.137C395.974 168.137 395.35 167.977 394.808 167.658C394.265 167.339 393.848 166.881 393.557 166.284C393.265 165.687 393.119 164.994 393.119 164.206C393.119 162.98 393.434 162.023 394.062 161.335C394.691 160.647 395.578 160.303 396.722 160.303C397.815 160.303 398.681 160.656 399.319 161.362C399.957 162.064 400.276 163.012 400.276 164.206ZM394.773 164.206C394.773 165.951 395.418 166.824 396.708 166.824C397.984 166.824 398.622 165.951 398.622 164.206C398.622 162.479 397.979 161.615 396.694 161.615C396.02 161.615 395.53 161.839 395.225 162.285C394.924 162.732 394.773 163.372 394.773 164.206ZM415.644 168H408.869V166.783L411.446 164.192C412.207 163.413 412.711 162.862 412.957 162.538C413.208 162.21 413.39 161.902 413.504 161.615C413.618 161.328 413.675 161.021 413.675 160.692C413.675 160.241 413.538 159.886 413.265 159.626C412.996 159.366 412.622 159.236 412.144 159.236C411.761 159.236 411.389 159.307 411.029 159.448C410.674 159.59 410.261 159.845 409.792 160.214L408.924 159.154C409.48 158.685 410.02 158.352 410.544 158.156C411.068 157.96 411.626 157.862 412.219 157.862C413.148 157.862 413.894 158.106 414.454 158.594C415.015 159.077 415.295 159.729 415.295 160.549C415.295 161 415.213 161.428 415.049 161.834C414.889 162.24 414.641 162.659 414.304 163.092C413.971 163.52 413.415 164.101 412.636 164.835L410.899 166.517V166.585H415.644V168ZM423.642 163.003C423.642 164.739 423.361 166.029 422.801 166.872C422.245 167.715 421.393 168.137 420.244 168.137C419.132 168.137 418.289 167.701 417.715 166.831C417.141 165.961 416.854 164.685 416.854 163.003C416.854 161.239 417.132 159.94 417.688 159.106C418.248 158.268 419.1 157.849 420.244 157.849C421.361 157.849 422.206 158.286 422.78 159.161C423.354 160.036 423.642 161.317 423.642 163.003ZM418.48 163.003C418.48 164.366 418.619 165.339 418.897 165.922C419.18 166.505 419.629 166.797 420.244 166.797C420.859 166.797 421.308 166.501 421.591 165.908C421.878 165.316 422.021 164.347 422.021 163.003C422.021 161.663 421.878 160.695 421.591 160.098C421.308 159.496 420.859 159.195 420.244 159.195C419.629 159.195 419.18 159.489 418.897 160.077C418.619 160.665 418.48 161.64 418.48 163.003ZM431.64 168H424.865V166.783L427.442 164.192C428.203 163.413 428.707 162.862 428.953 162.538C429.204 162.21 429.386 161.902 429.5 161.615C429.614 161.328 429.671 161.021 429.671 160.692C429.671 160.241 429.534 159.886 429.261 159.626C428.992 159.366 428.618 159.236 428.14 159.236C427.757 159.236 427.385 159.307 427.025 159.448C426.67 159.59 426.257 159.845 425.788 160.214L424.92 159.154C425.476 158.685 426.016 158.352 426.54 158.156C427.064 157.96 427.622 157.862 428.215 157.862C429.145 157.862 429.89 158.106 430.45 158.594C431.011 159.077 431.291 159.729 431.291 160.549C431.291 161 431.209 161.428 431.045 161.834C430.885 162.24 430.637 162.659 430.3 163.092C429.967 163.52 429.411 164.101 428.632 164.835L426.896 166.517V166.585H431.64V168ZM437.58 168H435.974V161.547C435.974 160.777 435.992 160.166 436.028 159.715C435.924 159.824 435.794 159.945 435.639 160.077C435.488 160.209 434.978 160.629 434.107 161.335L433.301 160.316L436.24 158.006H437.58V168Z" fill="#949494"/>
<path d="M157.333 56.3337V54.667L150.25 50.5003V45.917C150.25 45.2253 149.692 44.667 149 44.667C148.308 44.667 147.75 45.2253 147.75 45.917V50.5003L140.667 54.667V56.3337L147.75 54.2503V58.8337L145.667 60.0837V61.3337L149 60.5003L152.333 61.3337V60.0837L150.25 58.8337V54.2503L157.333 56.3337Z" fill="#949494"/>
<path d="M157.333 166.334V164.667L150.25 160.5V155.917C150.25 155.225 149.692 154.667 149 154.667C148.308 154.667 147.75 155.225 147.75 155.917V160.5L140.667 164.667V166.334L147.75 164.25V168.834L145.667 170.084V171.334L149 170.5L152.333 171.334V170.084L150.25 168.834V164.25L157.333 166.334Z" fill="#949494"/>
</svg>
